<?xml version="1.0" standalone="no"?>
<!DOCTYPE svg PUBLIC "-//W3C//DTD SVG 1.1//EN" "http://www.w3.org/Graphics/SVG/1.1/DTD/svg11.dtd" >
<svg xmlns="http://www.w3.org/2000/svg">
<metadata>Generated by IcoMoon</metadata>
<defs>
<font id="znode-icons" horiz-adv-x="1024">
<font-face units-per-em="1024" ascent="960" descent="-64" />
<missing-glyph horiz-adv-x="1024" />
<glyph unicode="&#x20;" horiz-adv-x="512" d="" />
<glyph unicode="&#xe900;" glyph-name="hamburger" d="M1024 182.857v-72.96c0-10.24-3.84-17.92-12.8-25.6s-17.92-10.24-29.44-10.24h-939.52c-11.52 0-21.76 3.84-29.44 10.24-8.96 7.68-12.8 15.36-12.8 25.6v72.96c0 10.24 3.84 17.92 12.8 25.6s17.92 10.24 29.44 10.24h938.24c11.52 0 21.76-3.84 29.44-10.24s14.080-15.36 14.080-25.6zM1024 475.977v-72.96c0-10.24-3.84-17.92-12.8-25.6s-17.92-10.24-29.44-10.24h-939.52c-11.52 0-21.76 3.84-29.44 10.24-8.96 7.68-12.8 15.36-12.8 25.6v72.96c0 10.24 3.84 17.92 12.8 25.6s17.92 10.24 29.44 10.24h938.24c11.52 0 21.76-3.84 29.44-10.24s14.080-16.64 14.080-25.6zM1024 767.817v-72.96c0-10.24-3.84-17.92-12.8-25.6s-17.92-10.24-29.44-10.24h-939.52c-11.52 0-21.76 3.84-29.44 10.24-8.96 7.68-12.8 15.36-12.8 25.6v72.96c0 10.24 3.84 17.92 12.8 25.6s17.92 10.24 29.44 10.24h938.24c11.52 0 21.76-3.84 29.44-10.24 10.24-6.4 14.080-15.36 14.080-25.6z" />
<glyph unicode="&#xe901;" glyph-name="delete" horiz-adv-x="691" d="M50 93.657c0-54.5 44.1-98.6 98.6-98.6h394.5c54.5 0 98.6 44.1 98.6 98.6v591.7h-591.7v-591.7zM691 833.357h-172.6l-49.3 49.3h-246.5l-49.3-49.3h-172.6v-98.6h690.3v98.6z" />
<glyph unicode="&#xe902;" glyph-name="detail-view" d="M0 883.017h478.72v-204.8h-478.72v204.8zM0 539.977h478.72v-204.8h-478.72v204.8zM0 199.497h478.72v-204.8h-478.72v204.8zM614.4 883.017v-409.6h409.6v409.6h-409.6zM957.44 539.977h-276.48v275.2h276.48v-275.2zM614.4-5.303h409.6v409.6h-409.6v-409.6zM680.96 337.737h276.48v-276.48h-276.48v276.48z" />
<glyph unicode="&#xe903;" glyph-name="edit" d="M0 140.257v-213.4h213.4l629.6 629.6-213.4 213.3-629.6-629.5zM1007.4 720.857c22.2 22.2 22.2 58.3 0 80.5l-132.9 132.9c-22.2 22.2-58.3 22.2-80.5 0l-104.1-104.2 213.4-213.4 104.1 104.2z" />
<glyph unicode="&#xe904;" glyph-name="export" d="M376.32 199.497h272.64v409.6h204.8l-341.76 341.76-341.76-341.76h207.36zM784.64 199.497v-135.68h-545.28v135.68h-136.96v-272.64h819.2v272.64z" />
<glyph unicode="&#xe905;" glyph-name="folder-close" d="M64 854.857c-35.84 0-64-28.16-64-64v-704c0-35.84 28.16-64 64-64h896c35.84 0 64 28.16 64 64v577.28c0 35.84-28.16 62.72-64 62.72h-448c-56.32 5.12-64 64-64 64 0 35.84-28.16 64-64 64h-320z" />
<glyph unicode="&#xe906;" glyph-name="folder-open" d="M990.72 641.097h-56.32c-6.4 0-5.12 8.96-5.12 8.96v28.16c0 37.12-30.72 66.56-66.56 66.56h-460.8c-2.56 0-6.4 6.4-14.080 19.2-1.28 2.56-2.56 3.84-2.56 6.4-23.040 44.8-53.76 53.76-75.52 53.76h-117.76c-30.72 0-48.64-17.92-69.12-52.48-2.56-1.28-3.84-3.84-5.12-6.4-6.4-11.52-11.52-19.2-15.36-19.2h-35.84c-35.84 0-66.56-30.72-66.56-66.56v-558.080c0-33.28 23.040-60.16 55.040-66.56 3.84-1.28 7.68-2.56 12.8-2.56h817.92c21.76 0 43.52 17.92 47.36 39.68l90.88 509.44c3.84 21.76-11.52 39.68-33.28 39.68v0zM66.56 692.297h35.84c34.56 0 51.2 28.16 62.72 46.080 1.28 2.56 2.56 3.84 3.84 6.4 10.24 17.92 19.2 26.88 29.44 26.88h113.92c3.84 0 14.080 0 28.16-25.6 1.28-1.28 1.28-3.84 2.56-5.12 10.24-19.2 24.32-48.64 61.44-48.64h459.52c7.68 0 12.8-6.4 12.8-12.8v-26.88c0 0 1.28-10.24-5.12-10.24h-700.16c-21.76 0-43.52-17.92-47.36-39.68l-66.56-378.88c0 0-3.84-12.8-3.84 10.24v445.44c0 6.4 6.4 12.8 12.8 12.8v0z" />
<glyph unicode="&#xe907;" glyph-name="info" d="M512 950.857c-282.88 0-512-229.12-512-512s229.12-512 512-512c282.88 0 512 229.12 512 512s-229.12 512-512 512v0zM638.72 109.897c-30.72-11.52-55.040-21.76-74.24-28.16-17.92-6.4-39.68-10.24-64-10.24-37.12 0-66.56 8.96-87.040 26.88s-30.72 40.96-30.72 69.12c0 11.52 1.28 21.76 2.56 33.28s3.84 24.32 7.68 38.4l38.4 136.96c3.84 12.8 6.4 25.6 8.96 37.12s3.84 23.040 3.84 32c0 17.92-3.84 29.44-11.52 35.84s-20.48 10.24-40.96 10.24c-10.24 0-20.48-1.28-30.72-3.84-10.24-3.84-19.2-6.4-26.88-8.96l10.24 42.24c25.6 10.24 49.92 19.2 72.96 26.88s44.8 11.52 65.28 11.52c37.12 0 65.28-8.96 85.76-26.88s30.72-40.96 30.72-70.4c0-6.4-1.28-16.64-2.56-30.72-1.28-15.36-3.84-28.16-7.68-40.96l-38.4-135.68c-3.84-11.52-6.4-23.040-8.96-37.12s-3.84-24.32-3.84-32c0-17.92 3.84-30.72 11.52-37.12s21.76-10.24 42.24-10.24c8.96 0 19.2 1.28 32 5.12 11.52 2.56 20.48 6.4 25.6 8.96l-10.24-42.24zM632.32 660.297c-17.92-16.64-39.68-25.6-65.28-25.6s-47.36 8.96-65.28 25.6c-17.92 16.64-26.88 37.12-26.88 60.16s8.96 43.52 26.88 60.16c17.92 16.64 39.68 25.6 65.28 25.6s47.36-8.96 65.28-25.6c17.92-16.64 26.88-37.12 26.88-60.16s-8.96-43.52-26.88-60.16v0z" />
<glyph unicode="&#xe908;" glyph-name="left-navigation" d="M544 395.337l-3.84-346.88c0 0-10.24 7.68-15.36 11.52-174.080 128-346.88 257.28-520.96 385.28-2.56 2.56-7.68 3.84-1.28 7.68 181.76 128 363.52 254.72 544 381.44 1.28 1.28 3.84 2.56 3.84 2.56l-5.12-334.080 477.44 334.080v-797.44l-478.72 355.84z" />
<glyph unicode="&#xe909;" glyph-name="list-view" d="M0 883.017h1024v-204.8h-1024v204.8zM0 539.977h1024v-204.8h-1024v204.8zM0 199.497h1024v-204.8h-1024v204.8z" />
<glyph unicode="&#xe90a;" glyph-name="menu-hamburger" d="M1024 715.337c-341.76 0-682.24 0-1022.72 0-1.28 79.36-1.28 157.44-1.28 235.52 341.76 0 682.24 0 1024 0 0-79.36 0-157.44 0-235.52zM0-73.143c0 78.080 0 156.16 0 234.24 341.76 0 682.24 0 1024 0 0-78.080 0-156.16 0-234.24-340.48 0-682.24 0-1024 0zM0 322.377c0 78.080 0 154.88 0 234.24 341.76 0 682.24 0 1024 0 0-78.080 0-156.16 0-234.24-340.48 0-682.24 0-1024 0z" />
<glyph unicode="&#xe90b;" glyph-name="refresh" d="M116.48 523.337c33.28 0 62.72 19.2 75.52 49.92 52.48 125.44 176.64 213.76 320 213.76 79.36 0 152.32-26.88 211.2-72.96l-46.080-6.4c-15.36-2.56-28.16-15.36-29.44-30.72-2.56-15.36 6.4-30.72 20.48-37.12l252.16-112.64c11.52-5.12 24.32-3.84 34.56 2.56s16.64 17.92 16.64 29.44v276.48c0 15.36-10.24 29.44-25.6 34.56s-32-1.28-39.68-14.080l-35.84-52.48c-92.16 90.88-218.88 147.2-358.4 147.2-212.48 0-394.24-129.28-472.32-313.6-10.24-25.6-7.68-55.040 7.68-78.080 15.36-21.76 40.96-35.84 69.12-35.84v0zM976.64 317.257c-15.36 23.040-40.96 37.12-69.12 37.12-33.28 0-62.72-19.2-75.52-49.92-52.48-125.44-176.64-213.76-320-213.76-79.36 0-152.32 26.88-211.2 72.96l46.080 7.68c15.36 2.56 28.16 15.36 29.44 30.72 2.56 15.36-6.4 30.72-20.48 37.12l-250.88 112.64c-11.52 5.12-24.32 3.84-34.56-2.56s-16.64-17.92-16.64-29.44l-1.28-277.76c0-15.36 10.24-29.44 25.6-34.56s32 1.28 39.68 14.080l34.56 52.48c93.44-90.88 220.16-147.2 359.68-147.2 212.48 0 394.24 129.28 472.32 313.6 10.24 25.6 7.68 53.76-7.68 76.8v0z" />
<glyph unicode="&#xe90c;" glyph-name="search" d="M998.4 72.777l-221.44 222.72c-1.28 1.28-2.56 2.56-3.84 2.56 43.52 66.56 69.12 145.92 69.12 231.68 0 232.96-188.16 421.12-421.12 421.12s-421.12-188.16-421.12-421.12c0-232.96 188.16-421.12 421.12-421.12 85.76 0 165.12 25.6 231.68 69.12 1.28-1.28 1.28-2.56 2.56-3.84l222.72-221.44c33.28-33.28 87.040-33.28 121.6 0 33.28 33.28 33.28 87.040-1.28 120.32zM421.12 254.537c-152.32 0-275.2 122.88-275.2 275.2s122.88 275.2 275.2 275.2 275.2-122.88 275.2-275.2c0-152.32-122.88-275.2-275.2-275.2z" />
<glyph unicode="&#xe90d;" glyph-name="setting" d="M986.88 513.097l-101.12 16.64c-7.68 30.72-17.92 58.88-32 85.76l65.28 80.64c14.080 16.64 12.8 40.96-1.28 57.6l-40.96 44.8c-14.080 16.64-38.4 20.48-57.6 7.68l-87.040-55.040c-38.4 26.88-81.92 46.080-128 57.6l-16.64 102.4c-3.84 24.32-23.040 39.68-44.8 39.68h-61.44c-21.76 0-40.96-15.36-43.52-37.12l-16.64-102.4c-38.4-8.96-74.24-24.32-107.52-44.8l-83.2 58.88c-17.92 12.8-42.24 10.24-57.6-5.12l-43.52-43.52c-14.080-14.080-16.64-38.4-3.84-56.32l58.88-83.2c-20.48-33.28-34.56-69.12-44.8-106.24l-102.4-16.64c-21.76-5.12-37.12-23.040-37.12-44.8v-60.16c0-21.76 15.36-40.96 37.12-44.8l102.4-16.64c7.68-32 19.2-61.44 34.56-89.6l-65.28-80.64c-14.080-16.64-12.8-40.96 1.28-57.6l39.68-44.8c14.080-16.64 38.4-19.2 57.6-7.68l88.32 55.040c37.12-25.6 79.36-43.52 124.16-55.040l16.64-102.4c3.84-21.76 21.76-37.12 43.52-37.12h61.44c21.76 0 40.96 15.36 44.8 37.12l16.64 102.4c38.4 8.96 74.24 24.32 106.24 43.52l85.76-61.44c17.92-12.8 42.24-10.24 57.6 5.12l43.52 43.52c15.36 15.36 17.92 39.68 5.12 57.6l-61.44 85.76c20.48 33.28 34.56 69.12 44.8 107.52l101.12 16.64c21.76 3.84 37.12 21.76 37.12 44.8v60.16c1.28 20.48-14.080 38.4-35.84 42.24v0zM513.28 246.857c-106.24 0-192 85.76-192 192s85.76 192 192 192c106.24 0 192-85.76 192-192s-85.76-192-192-192v0z" />
<glyph unicode="&#xe90e;" glyph-name="tile-view" d="M544 883.017v-409.6h409.6v409.6h-409.6zM887.040 539.977h-276.48v275.2h276.48v-275.2zM544-5.303h409.6v409.6h-409.6v-409.6zM610.56 337.737h276.48v-276.48h-276.48v276.48zM70.4 473.417h409.6v409.6h-409.6v-409.6zM136.96 815.177h276.48v-275.2h-276.48v275.2zM70.4-5.303h409.6v409.6h-409.6v-409.6zM136.96 337.737h276.48v-276.48h-276.48v276.48z" />
<glyph unicode="&#xe90f;" glyph-name="user" d="M647.68 473.417c138.24 120.32 160 275.2 56.32 392.96-93.44 104.96-258.56 113.92-362.24 20.48-53.76-48.64-81.92-110.080-84.48-181.76-2.56-99.84 44.8-174.080 124.16-231.68-222.72-89.6-344.32-264.96-322.56-460.8 10.24-55.040 39.68-84.48 92.16-84.48 241.92-1.28 482.56-1.28 724.48 0 52.48 0 81.92 30.72 90.88 85.76v0c12.8 234.24-115.2 372.48-318.72 459.52z" />
<glyph unicode="&#xe910;" glyph-name="view" horiz-adv-x="1463" d="M1455.543 455.314c-71.314 124.343-160.914 234.057-276.114 320-221.257 164.571-462.629 204.8-718.629 100.571-202.971-82.286-345.6-237.714-457.143-424.229-7.314-12.8-3.657-23.771 1.829-34.743 149.943-296.229 384-462.629 720.457-471.771 76.8-1.829 151.771 10.971 224.914 34.743 228.571 76.8 385.829 237.714 506.514 440.686 9.143 14.629 5.486 23.771-1.829 34.743zM731.429 131.657c-179.2 0-305.371 131.657-303.543 316.343 0 168.229 133.486 298.057 305.371 298.057 175.543 0 305.371-131.657 303.543-307.2 0-179.2-129.829-307.2-305.371-307.2zM731.429 623.543c-98.743-1.829-182.857-85.943-182.857-184.686 0-100.571 84.114-184.686 184.686-184.686s182.857 84.114 182.857 186.514c-1.829 100.571-84.114 182.857-184.686 182.857z" />
<glyph unicode="&#xe911;" glyph-name="down" d="M910.080 714.057c0 0-1.28-2.56-2.56-3.84-126.72-180.48-253.44-362.24-381.44-544-3.84-6.4-5.12-1.28-7.68 1.28-128 174.080-257.28 346.88-385.28 520.96-3.84 5.12-19.2 25.6-19.2 25.6h796.16z" />
<glyph unicode="&#xe912;" glyph-name="first" d="M787.2 40.777c0 0-20.48 15.36-25.6 19.2-174.080 128-346.88 257.28-520.96 385.28-2.56 2.56-7.68 3.84-1.28 7.68 181.76 128 363.52 254.72 544 381.44 1.28 1.28 3.84 2.56 3.84 2.56v-796.16z" />
<glyph unicode="&#xe913;" glyph-name="last" d="M236.8 836.937c0 0 2.56-1.28 3.84-2.56 180.48-126.72 362.24-253.44 544-381.44 6.4-3.84 1.28-5.12-1.28-7.68-174.080-128-346.88-257.28-520.96-385.28-5.12-3.84-25.6-19.2-25.6-19.2v796.16z" />
<glyph unicode="&#xe914;" glyph-name="up" d="M113.92 163.657c0 0 15.36 20.48 19.2 25.6 128 174.080 257.28 346.88 385.28 520.96 2.56 2.56 3.84 7.68 7.68 1.28 128-181.76 254.72-363.52 381.44-544 1.28-1.28 2.56-3.84 2.56-3.84h-796.16z" />
<glyph unicode="&#xe915;" glyph-name="disable" d="M872.96 438.857c0 71.68-19.2 136.96-57.6 195.84l-500.48-500.48c60.16-39.68 126.72-58.88 197.12-58.88 48.64 0 96 10.24 140.8 29.44s83.2 44.8 115.2 76.8c32 32 57.6 70.4 76.8 116.48 19.2 44.8 28.16 92.16 28.16 140.8v0zM209.92 240.457l501.76 500.48c-60.16 39.68-126.72 60.16-199.68 60.16-65.28 0-125.44-16.64-181.76-48.64s-99.84-76.8-131.84-131.84-48.64-116.48-48.64-181.76c1.28-71.68 20.48-138.24 60.16-198.4v0zM1022.72 438.857c0-69.12-14.080-135.68-40.96-199.68s-62.72-117.76-108.8-163.84c-44.8-46.080-99.84-81.92-162.56-108.8-62.72-25.6-129.28-39.68-198.4-39.68s-135.68 14.080-198.4 40.96c-62.72 26.88-117.76 62.72-162.56 108.8s-81.92 99.84-108.8 163.84-40.96 129.28-40.96 198.4c0 69.12 14.080 135.68 40.96 198.4s62.72 117.76 108.8 162.56 99.84 81.92 162.56 108.8 129.28 42.24 198.4 42.24c69.12 0 135.68-14.080 198.4-40.96s117.76-62.72 162.56-108.8c44.8-46.080 81.92-99.84 108.8-162.56s40.96-129.28 40.96-199.68z" />
<glyph unicode="&#xe916;" glyph-name="enable" d="M780.8 493.897l-281.6-281.6c-8.96-8.96-17.92-12.8-29.44-12.8s-21.76 3.84-29.44 12.8l-197.12 197.12c-8.96 8.96-12.8 17.92-12.8 29.44s3.84 21.76 12.8 29.44l67.84 67.84c8.96 8.96 17.92 12.8 29.44 12.8s21.76-3.84 29.44-12.8l98.56-98.56 184.32 184.32c8.96 8.96 17.92 12.8 29.44 12.8s21.76-3.84 29.44-12.8l69.12-67.84c8.96-8.96 12.8-17.92 12.8-29.44s-3.84-21.76-12.8-30.72v0zM874.24 438.857c0 65.28-16.64 126.72-48.64 181.76s-76.8 99.84-131.84 131.84c-55.040 32-116.48 48.64-181.76 48.64s-126.72-16.64-181.76-48.64-99.84-76.8-131.84-131.84-48.64-116.48-48.64-181.76c0-65.28 16.64-126.72 48.64-181.76s76.8-99.84 131.84-131.84c55.040-32 116.48-48.64 181.76-48.64s126.72 16.64 181.76 48.64c55.040 32 99.84 76.8 131.84 131.84s48.64 116.48 48.64 181.76zM1024 438.857c0-93.44-23.040-177.92-69.12-257.28-46.080-78.080-107.52-140.8-186.88-186.88-78.080-44.8-162.56-67.84-256-67.84s-177.92 23.040-257.28 69.12c-78.080 46.080-140.8 107.52-186.88 186.88s-67.84 162.56-67.84 256 23.040 177.92 69.12 257.28 107.52 140.8 186.88 186.88 162.56 67.84 256 67.84 177.92-23.040 257.28-69.12 140.8-107.52 186.88-186.88c44.8-78.080 67.84-162.56 67.84-256z" />
<glyph unicode="&#xe917;" glyph-name="admin" d="M801.28 91.977c-32-3.84-65.28-7.68-96 8.96s-49.92 43.52-51.2 80.64c-39.68-38.4-67.84-43.52-101.12-16.64-53.76 42.24-58.88 76.8-19.2 138.24-11.52 2.56-23.040 2.56-34.56 6.4-32 8.96-51.2 30.72-57.6 62.72-5.12 32-6.4 65.28 21.76 89.6 19.2 16.64 55.040 7.68 62.72 24.32 8.96 20.48-26.88 35.84-28.16 62.72-1.28 40.96 28.16 83.2 78.080 99.84 11.52 3.84 28.16 7.68 15.36 21.76-23.040 23.040-12.8 48.64-10.24 72.96 3.84 51.2-15.36 92.16-56.32 121.6-62.72 46.080-130.56 47.36-198.4 12.8-64-33.28-85.76-90.88-74.24-161.28 2.56-15.36 3.84-26.88-8.96-42.24-21.76-25.6-17.92-74.24 8.96-92.16 16.64-11.52 23.040-25.6 26.88-43.52 3.84-19.2 12.8-35.84 23.040-52.48 26.88-42.24 11.52-89.6-32-110.080-67.84-30.72-136.96-55.040-200.96-93.44-38.4-23.040-60.16-52.48-62.72-99.84-3.84-53.76-2.56-107.52-6.4-162.56-2.56-34.56 6.4-46.080 43.52-44.8 232.96 2.56 465.92 1.28 697.6 1.28 89.6 0 88.32 0 88.32 89.6 0 21.76-1.28 29.44-28.16 25.6zM975.36 460.617c-21.76 0-48.64-15.36-64 17.92-16.64 34.56 17.92 40.96 29.44 58.88 1.28 2.56 3.84 3.84 5.12 5.12 20.48 20.48 15.36 38.4-3.84 56.32-17.92 17.92-35.84 30.72-60.16 8.96-10.24-10.24-21.76-19.2-30.72-30.72-11.52-14.080-23.040-12.8-37.12-6.4s-25.6 11.52-23.040 30.72c1.28 10.24 0 20.48 0 30.72 2.56 29.44-12.8 40.96-40.96 43.52-42.24 2.56-51.2-20.48-48.64-56.32 1.28-19.2 5.12-37.12-23.040-49.92s-38.4 2.56-51.2 17.92c-21.76 24.32-42.24 30.72-69.12 5.12s-21.76-46.080 3.84-67.84c16.64-14.080 29.44-26.88 17.92-55.040s-29.44-24.32-49.92-23.040c-33.28 1.28-46.080-12.8-46.080-46.080 0-40.96 23.040-48.64 55.040-44.8 26.88 2.56 38.4-7.68 49.92-30.72s-5.12-32-15.36-42.24c-25.6-23.040-32-44.8-3.84-71.68s48.64-16.64 69.12 7.68c15.36 19.2 30.72 30.72 58.88 19.2 30.72-11.52 19.2-34.56 17.92-51.2 0-34.56 12.8-46.080 46.080-46.080 32 0 43.52 11.52 43.52 43.52 0 20.48-11.52 43.52 11.52 60.16 35.84 26.88 49.92-5.12 69.12-23.040 12.8-12.8 26.88-24.32 44.8-12.8 16.64 11.52 34.56 23.040 37.12 48.64-3.84 25.6-28.16 38.4-44.8 55.040-14.080 14.080-11.52 25.6-6.4 42.24s16.64 16.64 30.72 16.64c11.52 0 23.040 0 34.56 0 26.88 0 39.68 11.52 40.96 39.68 2.56 33.28-8.96 49.92-47.36 49.92zM747.52 333.897c-42.24 0-75.52 32-75.52 72.96 0 39.68 34.56 74.24 75.52 74.24 39.68-1.28 71.68-32 72.96-71.68 1.28-42.24-30.72-75.52-72.96-75.52z" />
<glyph unicode="&#xe918;" glyph-name="cms" horiz-adv-x="1050" d="M401.927 443.607v-118.051h118.051l348.25 348.25-118.143 118.051-348.158-348.25zM959.164 764.834c12.266 12.266 12.266 32.28 0 44.546l-73.505 73.505c-12.266 12.266-32.28 12.266-44.546 0l-57.55-57.55 118.051-118.051 57.55 57.55zM648.081 818.326c-38.92-38.92-77.932-77.932-115.653-115.653-3.505-3.505-7.102-2.398-10.606-2.398-131.055 0-262.11 0-391.966 0-3.505 0-7.102 0-9.407 0-2.398-2.398-1.199-5.903-1.199-8.3 0-214.89 0-373.152 0-588.041 0-30.712 26.008-57.827 57.827-57.827 198.289 0 341.057 0 539.345 0 30.712 0 56.628 27.115 56.628 56.628 0 115.653 0 231.398 0 347.051 0 5.903 2.398 10.606 5.903 15.31 36.614 36.614 73.228 73.228 109.751 109.751 2.398-2.398 1.199-4.704 1.199-7.102 0-153.466 0-306.933 0-460.399 0-86.14-54.322-155.864-139.263-175.878-14.203-3.505-28.314-4.704-42.517-4.704-194.784 0-333.955 0-528.739 0-85.034 2.398-154.665 56.628-174.679 140.462-3.505 14.295-4.704 28.406-4.704 42.609 0 213.691 0 372.045 0 586.842 0 60.224 36.614 106.246 94.441 119.25 8.3 1.199 17.708 2.398 26.008 2.398 174.679 0 348.25 0 522.929 0 1.199 0 2.398 0 4.704 0v0zM183.532 210.272h529.385v-86.694h-529.385v86.694zM183.532 355.991h124.784v-86.694h-124.784v86.694z" />
<glyph unicode="&#xe919;" glyph-name="media-manager" horiz-adv-x="1321" d="M1124.5 603.457h-126.3v125.1c0 23.7-16.9 44-40.6 44h-128.5v125.2c0 23.7-16.9 44-40.6 44h-592c-23.7 0-44-20.3-44-44v-592c0-23.7 20.3-40.6 44-40.6h125.2v-128.5c0-23.7 20.3-40.6 44-40.6h125.2v-126.3c0-23.7 19.2-42.8 42.8-42.8h592c23.7 0 42.8 19.2 42.8 42.8v590.8c-1.1 23.7-20.3 42.9-44 42.9zM237.1 349.757v507.4h507.4v-507.4h-507.4zM406.2 180.557v84.6h382.3c23.7 0 40.6 16.9 40.6 40.6v382.2h84.6v-507.4h-507.5zM1082.8 11.457h-507.4v84.6h382.3c23.7 0 40.6 16.9 40.6 40.6v382.2h84.6l-0.1-507.4zM278.7 498.657l155.3 199.5 96.1-133 51.7 66.5 118.3-133z" />
<glyph unicode="&#xe91a;" glyph-name="oms" horiz-adv-x="1170" d="M1115.5 753.857c-0.7 23.9-15.6 44.3-37.4 50.8l-279.3 84.7-199.3 59.3c0 1.3-1.3 1.3-2.5 1.3s-1.3 0-2.5 0c-6.3 1.3-12.6 1.3-18.9 0-1.3 0-1.3 0-2.5 0 0-1.3-1.3-1.3-2.5-1.3l-107.3-31.5-106-31.5v-267.4l-118.6-22.7v254.7l-103.4-31.5-42.9-12.6c-22.7-6.3-37.8-26.5-37.8-50.5v-630.8c0-24 15.1-44.2 37.8-50.5l478.1-143.8c5-1.3 10.1-2.5 15.1-2.5s10.1 1.3 15.1 2.5l476.8 143.8c22.7 7.6 37.8 27.8 37.8 50.5v283.9c0 0-0.1 0-0.1 0l0.3 345.1zM1011.6 715.357l-0.8-552.6-374.7-112.3v778.3l375.5-113.4zM668.9 432.057c0-16.9 11.3-28.2 28.2-28.2h185.9l-50.7-50.7c-11.3-11.3-11.3-28.2 0-39.4 5.6-5.6 14.1-8.5 19.7-8.5s14.1 2.8 19.7 8.5l98.6 98.6c2.8 2.8 5.6 5.6 5.6 8.5 2.8 2.8 2.8 8.5 2.8 11.3s0 8.5-2.8 11.3-2.8 5.6-5.6 8.5l-98.6 98.6c-11.3 11.3-28.2 11.3-39.4 0-11.3-11.3-11.3-28.2 0-39.4l50.7-50.7h-185.9c-16.9-0.3-28.2-11.5-28.2-28.4z" />
<glyph unicode="&#xe91b;" glyph-name="customers" horiz-adv-x="1107" d="M839.9 517.457c63.2 0 114.1 51.3 114.1 114.5s-51 114.5-114.1 114.5-114.5-51.3-114.5-114.5 51.4-114.5 114.5-114.5zM552.6 556.457c63.2 0 114.1 51.3 114.1 114.5s-51 114.5-114.1 114.5-114.5-51.3-114.5-114.5 51.5-114.5 114.5-114.5zM552.6 480.157c-89.1 0-267.1-44.7-267.1-133.5v-254.4h534.2v254.4c0.1 88.9-178 133.5-267.1 133.5zM839.9 461.157c-11.1 0-23.4-0.8-36.9-2.1 44.3-31.8 75-74.8 75-131.4v-235.4h229v235.4c0 88.8-178 133.5-267.1 133.5zM382.7 631.957c0 63.2-51.3 114.5-114.5 114.5s-114.1-51.3-114.1-114.5 51-114.5 114.1-114.5 114.5 51.3 114.5 114.5zM1.1 327.657v-235.4h228.9v235.4c0 56.6 30.7 99.6 75 131.4-13.4 1.4-25.8 2.1-36.9 2.1-89 0-267-44.7-267-133.5z" />
<glyph unicode="&#xe91c;" glyph-name="dashboard" d="M825.6 578.377c0-35.346-28.654-64-64-64s-64 28.654-64 64c0 35.346 28.654 64 64 64s64-28.654 64-64zM586.24 694.857c0-35.346-28.654-64-64-64s-64 28.654-64 64c0 35.346 28.654 64 64 64s64-28.654 64-64zM512 950.857c-282.88 0-512-229.12-512-512s229.12-512 512-512c282.88 0 512 229.12 512 512s-229.12 512-512 512zM128 438.857c0 212.48 171.52 384 384 384s384-171.52 384-384c0-52.48-10.24-102.4-29.44-148.48h-295.68l136.96 231.68-261.12-194.56-32-35.84h-232.96c-34.56 57.6-53.76 113.92-53.76 147.2zM290.56 554.057c35.84 0 64 28.16 64 64s-28.16 64-64 64c-35.84 0-61.44-28.16-61.44-64 0-34.56 25.6-64 61.44-64z" />
<glyph unicode="&#xe91d;" glyph-name="promotinons-and-coupons" horiz-adv-x="1107" d="M1090.422 615.981c-17.989 96.865-49.816 189.578-117.622 265.686-78.876 88.562-175.741 92.714-258.768 9.686-19.373-19.373-40.13-33.211-63.654-44.281-192.346-91.33-381.924-182.659-574.27-272.605-59.503-27.676-76.108-73.341-76.108-132.843 0-60.886 12.454-113.47 76.108-138.378 22.141-8.303 44.281-20.757 69.189-31.827 0-13.838 2.768-23.524 1.384-31.827-13.838-114.854 37.362-182.659 141.146-226.941 146.681-62.27 166.054-63.654 279.524 56.735 49.816-27.676 106.551-42.897 150.832-87.178 77.492-77.492 171.589-71.957 246.314 8.303 44.281 47.049 73.341 103.784 95.481 166.054 52.584 149.449 58.119 304.432 30.443 459.416zM375.005 69.387c-24.908 11.070-49.816 24.908-74.724 35.978-66.422 31.827-67.805 34.595-59.503 120.389 81.643-38.746 159.135-76.108 235.243-112.086-23.524-59.503-45.665-69.189-101.016-44.281zM946.508 144.111c-23.524-47.049-51.2-102.4-110.703-101.016-55.351 1.384-84.411 52.584-105.168 99.632-88.562 200.649-87.178 402.681 5.535 601.946 19.373 42.897 48.432 88.562 101.016 88.562s78.876-45.665 102.4-87.178c44.281-78.876 67.805-189.578 67.805-305.816 0-102.4-15.222-203.416-60.886-296.13zM745.859 560.63c-29.059-81.643-27.676-163.286 2.768-244.93 84.411 19.373 123.157 60.886 120.389 128.692-2.768 63.654-44.281 103.784-123.157 116.238z" />
<glyph unicode="&#xe91e;" glyph-name="provider-engine" d="M608 167.497c-40.96-17.92-87.040-28.16-135.68-28.16-188.16 0-340.48 152.32-340.48 340.48s152.32 340.48 340.48 340.48 340.48-152.32 340.48-340.48c0-49.92-11.52-97.28-30.72-140.8 30.72-34.56 84.48-85.76 98.56-93.44 7.68 11.52 16.64 21.76 21.76 34.56-14.080 24.32-43.52 30.72-57.6 53.76 17.92 26.88 11.52 61.44 30.72 85.76 24.32 2.56 47.36 6.4 70.4 8.96 0 28.16 0 53.76 0 80.64 0 10.24-2.56 17.92-14.080 23.040-11.52 0-25.6 0-39.68 0-20.48 0-21.76 1.28-26.88 21.76-5.12 21.76-8.96 44.8-17.92 65.28 2.56 16.64 14.080 24.32 25.6 32 5.12 3.84 12.8 6.4 17.92 10.24 8.96 6.4 11.52 15.36 5.12 25.6-8.96 15.36-17.92 32-28.16 47.36-5.12 8.96-11.52 17.92-24.32 20.48-12.8-2.56-24.32-10.24-37.12-16.64-8.96-3.84-19.2-7.68-26.88 0-20.48 19.2-40.96 38.4-56.32 58.88 1.28 26.88 19.2 43.52 23.040 67.84-26.88 19.2-55.040 35.84-85.76 47.36-15.36-20.48-25.6-43.52-47.36-57.6-24.32 16.64-53.76 16.64-84.48 24.32-1.28 24.32-8.96 47.36-6.4 71.68-33.28 0-65.28 0-94.72 0-21.76-20.48 1.28-52.48-21.76-71.68-28.16 1.28-52.48-16.64-79.36-20.48-24.32 11.52-26.88 42.24-52.48 53.76-26.88-17.92-56.32-26.88-79.36-51.2 7.68-20.48 16.64-39.68 25.6-62.72-23.040-19.2-43.52-44.8-66.56-64-24.32 1.28-40.96 16.64-65.28 21.76-17.92-26.88-38.4-53.76-49.92-87.040 20.48-14.080 40.96-25.6 55.040-44.8-8.96-26.88-17.92-55.040-23.040-84.48-23.040-7.68-48.64-6.4-71.68-8.96 0-35.84 0-70.4 0-102.4 24.32-5.12 48.64-7.68 70.4-7.68 7.68-32 15.36-61.44 23.040-89.6-14.080-21.76-43.52-24.32-52.48-51.2 14.080-26.88 28.16-56.32 47.36-80.64 24.32 6.4 40.96 23.040 57.6 25.6 25.6-25.6 47.36-47.36 70.4-70.4-7.68-16.64-15.36-37.12-24.32-55.040 5.12-14.080 15.36-17.92 24.32-23.040 11.52-6.4 23.040-11.52 34.56-17.92 21.76-14.080 26.88-12.8 43.52 8.96 10.24 12.8 16.64 26.88 32 34.56 26.88-15.36 60.16-11.52 85.76-25.6 7.68-25.6-6.4-51.2 11.52-70.4 33.28 0 65.28 0 97.28 0-2.56 25.6 6.4 48.64 6.4 70.4 23.040 6.4 44.8 12.8 66.56 19.2 24.32 6.4 24.32 5.12 39.68-14.080 8.96-12.8 15.36-28.16 33.28-35.84 8.96 10.24 26.88 10.24 34.56 28.16-28.16 29.44-58.88 62.72-92.16 93.44zM491.52 757.577c-172.8 7.68-288-136.96-294.4-261.12-8.96-168.96 131.84-295.68 273.92-296.96 156.16-2.56 288 131.84 276.48 280.32 12.8 144.64-128 271.36-256 277.76zM637.44 328.777c-32-37.12-74.24-60.16-120.32-69.12-33.28-6.4-66.56-6.4-101.12 3.84-35.84 11.52-65.28 28.16-93.44 51.2-25.6 20.48-38.4 49.92-52.48 78.080-12.8 26.88-17.92 56.32-14.080 84.48-10.24 107.52 83.2 204.8 181.76 221.44 58.88 10.24 107.52-6.4 156.16-34.56 60.16-34.56 88.32-90.88 98.56-154.88 11.52-67.84-10.24-128-55.040-180.48zM1006.080 33.097c-2.56 2.56-5.12 5.12-7.68 7.68-55.040 57.6-112.64 111.36-165.12 170.24-33.28 38.4-71.68 35.84-106.24 0-2.56-2.56-5.12-6.4-10.24-11.52 0-6.4 0-11.52 0-16.64-3.84-28.16 6.4-48.64 26.88-67.84 56.32-53.76 111.36-110.080 166.4-166.4 15.36-15.36 32-21.76 53.76-20.48 28.16 1.28 47.36 14.080 56.32 39.68 7.68 23.040 5.12 46.080-14.080 65.28zM720.64 281.417c-19.2-14.080-35.84-30.72-49.92-49.92-3.84-6.4-2.56-14.080 3.84-19.2s14.080-6.4 19.2-1.28c17.92 14.080 33.28 29.44 46.080 46.080 7.68 10.24 0 24.32-12.8 25.6-1.28 0-5.12 0-6.4-1.28z" />
<glyph unicode="&#xe91f;" glyph-name="roles" d="M962.56 354.377c-35.84 35.84-81.92 56.32-130.56 61.44 42.24 38.4 67.84 93.44 67.84 153.6 0 113.92-93.44 207.36-207.36 207.36-108.8 0-199.68-85.76-207.36-193.28 97.28-42.24 165.12-139.52 165.12-252.16 0-40.96-8.96-81.92-26.88-117.76 24.32-12.8 48.64-30.72 67.84-49.92 51.2-52.48 81.92-122.88 80.64-197.12v-37.12h248.32l3.84 275.2c0 57.6-20.48 111.36-61.44 149.76zM517.12 180.297c42.24 38.4 69.12 93.44 69.12 153.6 0 113.92-93.44 207.36-207.36 207.36s-207.36-93.44-207.36-207.36c0-61.44 26.88-115.2 67.84-153.6-108.8-8.96-194.56-98.56-194.56-208.64l-2.56-40.96h663.040l1.28 38.4c0 56.32-20.48 110.080-61.44 149.76-33.28 34.56-79.36 56.32-128 61.44zM134.4 697.417v-78.080c0-32 26.88-57.6 57.6-57.6s57.6 26.88 57.6 57.6v78.080h78.080c32 0 57.6 26.88 57.6 57.6s-26.88 57.6-57.6 57.6h-78.080v76.8c0 32-26.88 57.6-57.6 57.6s-57.6-26.88-57.6-57.6v-75.52h-76.8c-32 0-57.6-26.88-57.6-57.6s26.88-57.6 57.6-57.6h76.8z" />
<glyph unicode="&#xe920;" glyph-name="supplier" horiz-adv-x="1707" d="M1216 195.657c6.4-40.533-10.667-68.267-40.533-89.6-32-23.467-66.133-14.933-98.133-2.133 0-38.4-23.467-61.867-49.067-83.2-23.467-17.067-49.067-12.8-74.667-6.4-10.667 2.133-12.8 2.133-14.933-10.667-6.4-66.133-68.267-98.133-123.733-66.133-10.667 6.4-12.8 8.533-2.133 17.067 27.733 23.467 53.333 49.067 81.067 72.533 34.133 29.867 40.533 68.267 21.333 108.8-19.2 38.4-46.933 70.4-108.8 59.733-6.4-2.133-8.533 0-10.667 6.4-14.933 61.867-55.467 89.6-117.333 81.067-14.933-2.133-21.333 0-25.6 17.067-14.933 51.2-53.333 74.667-106.667 68.267-10.667-2.133-14.933-2.133-14.933 12.8 0 49.067-64 93.867-115.2 83.2-17.067-4.267-32-10.667-44.8-23.467-29.867-29.867-61.867-57.6-93.867-87.467-6.4-6.4-10.667-6.4-17.067 0-21.333 19.2-19.2 10.667-8.533 34.133 57.6 136.533 117.333 270.933 177.067 407.467 4.267 10.667 10.667 12.8 23.467 12.8 44.8-4.267 89.6 4.267 132.267 17.067 38.4 10.667 74.667 25.6 115.2 29.867 27.733 2.133 57.6 4.267 85.333-6.4 17.067-6.4 17.067-8.533 4.267-19.2-44.8-38.4-85.333-78.933-128-117.333-19.2-17.067-36.267-36.267-53.333-55.467-27.733-27.733-29.867-59.733-21.333-93.867 6.4-25.6 17.067-49.067 36.267-66.133 27.733-25.6 59.733-49.067 98.133-55.467 25.6-4.267 51.2 4.267 74.667 14.933 49.067 21.333 91.733 51.2 130.133 87.467 25.6 23.467 42.667 23.467 70.4 0 104.533-91.733 211.2-185.6 315.733-277.333 8.533-6.4 17.067-14.933 27.733-17.067 14.933-2.133 10.667-8.533 6.4-17.067-27.733-51.2-76.8-57.6-117.333-40.533-4.267 2.133-8.533 2.133-12.8 4.267zM620.8 581.79c0 19.2 8.533 36.267 19.2 51.2 46.933 61.867 104.533 110.933 164.267 157.867 12.8 8.533 25.6 17.067 36.267 27.733 68.267 55.467 142.933 59.733 224 36.267 8.533-2.133 19.2-6.4 27.733-10.667 46.933-25.6 98.133-29.867 149.333-29.867 14.933 0 23.467-6.4 29.867-17.067 27.733-55.467 51.2-110.933 74.667-168.533 34.133-85.333 68.267-170.667 104.533-256 4.267-10.667 2.133-14.933-6.4-21.333-27.733-14.933-55.467-32-81.067-49.067-8.533-6.4-14.933-4.267-23.467 2.133-102.4 91.733-206.933 183.467-311.467 277.333-29.867 25.6-74.667 29.867-108.8 8.533-42.667-27.733-85.333-53.333-130.133-81.067-25.6-17.067-53.333-29.867-83.2-17.067-38.4 14.933-70.4 36.267-83.2 78.933 0 2.133-2.133 4.267-2.133 6.4 0 0 0 2.133 0 4.267zM1307.733 850.59c0 19.2 8.533 32 25.6 40.533 34.133 14.933 68.267 29.867 102.4 44.8 36.267 14.933 66.133 4.267 83.2-34.133 17.067-36.267 32-74.667 49.067-110.933 44.8-106.667 89.6-211.2 134.4-317.867 6.4-17.067 6.4-29.867-2.133-44.8-10.667-23.467-29.867-38.4-53.333-46.933-27.733-12.8-55.467-21.333-85.333-29.867-14.933-4.267-25.6 0-38.4 10.667-14.933 14.933-25.6 32-34.133 51.2-59.733 132.267-117.333 266.667-174.933 401.067-4.267 10.667-6.4 23.467-6.4 36.267zM142.933 359.924c-12.8 0-27.733 2.133-40.533 8.533-29.867 12.8-57.6 29.867-85.333 46.933-12.8 6.4-17.067 17.067-17.067 27.733 0 23.467 6.4 44.8 14.933 66.133 55.467 134.4 115.2 264.533 172.8 396.8 4.267 8.533 8.533 17.067 14.933 23.467 17.067 21.333 32 25.6 57.6 14.933 32-12.8 61.867-27.733 93.867-42.667 44.8-19.2 55.467-49.067 36.267-93.867-34.133-74.667-66.133-151.467-100.267-226.133-27.733-61.867-55.467-123.733-83.2-185.6-14.933-27.733-29.867-36.267-64-36.267zM448 118.857c-44.8 0-72.533 29.867-66.133 72.533 0 6.4 4.267 10.667 8.533 17.067 44.8 38.4 87.467 78.933 132.267 117.333 8.533 8.533 19.2 10.667 29.867 8.533 21.333-6.4 40.533-17.067 53.333-36.267s10.667-42.667-6.4-59.733c-40.533-36.267-81.067-72.533-119.467-110.933-12.8-6.4-21.333-6.4-32-8.533zM716.8-56.076c-44.8 0-72.533 29.867-66.133 70.4 0 6.4 2.133 10.667 8.533 17.067 44.8 38.4 87.467 78.933 132.267 119.467 8.533 6.4 17.067 10.667 27.733 8.533 23.467-6.4 42.667-17.067 57.6-38.4 12.8-19.2 8.533-42.667-8.533-57.6-40.533-36.267-78.933-72.533-119.467-108.8-10.667-10.667-21.333-10.667-32-10.667zM588.8 33.524c-46.933 0-74.667 29.867-68.267 72.533 0 6.4 4.267 10.667 8.533 17.067 42.667 38.4 87.467 76.8 130.133 117.333 10.667 8.533 21.333 12.8 34.133 8.533 17.067-6.4 32-14.933 44.8-27.733 19.2-21.333 17.067-46.933-4.267-66.133-38.4-34.133-74.667-68.267-113.067-102.4-8.533-14.933-19.2-19.2-32-19.2zM326.4 212.724c-49.067 0-76.8 29.867-72.533 70.4 0 6.4 4.267 12.8 8.533 17.067 42.667 38.4 85.333 76.8 128 115.2 12.8 10.667 23.467 12.8 38.4 8.533 17.067-6.4 32-14.933 42.667-29.867 17.067-21.333 14.933-46.933-4.267-66.133-38.4-34.133-76.8-70.4-113.067-104.533-8.533-6.4-17.067-12.8-27.733-10.667z" />
<glyph unicode="&#xe921;" glyph-name="taxes" horiz-adv-x="1205" d="M1152 270.198c-12.047 57.224-43.671 105.412-91.859 140.047-67.765 46.682-141.553 60.235-222.871 37.647-82.824-21.082-138.541-72.282-165.647-152.094-13.553-40.659-19.576-81.318-12.047-124.988 9.035-46.682 25.6-90.353 58.729-124.988 49.694-54.212 114.447-79.812 188.235-79.812 21.082 0 42.165 0 64.753 6.024 54.212 12.047 102.4 37.647 138.541 82.824 46.682 61.741 60.235 135.529 42.165 215.341zM908.047 101.539c-61.741 0-103.906 43.671-105.412 106.918 0 69.271 52.706 106.918 103.906 108.424 57.224 1.506 108.424-46.682 105.412-105.412 3.012-52.706-34.635-109.929-103.906-109.929zM371.953 429.822c51.2 15.059 96.376 42.165 128 85.835 45.176 63.247 58.729 131.012 42.165 204.8-24.094 109.929-109.929 182.212-216.847 191.247-16.565-7.529-39.153-7.529-55.718 0-24.094 1.506-46.682-7.529-69.271-15.059-140.047-55.718-189.741-212.329-129.506-340.329 42.165-88.847 120.471-129.506 213.835-137.035 30.118-3.012 60.235 3.012 87.341 10.541zM191.247 666.245c0 64.753 42.165 105.412 103.906 106.918 64.753 3.012 108.424-49.694 106.918-108.424-1.506-61.741-45.176-105.412-105.412-106.918-57.224 0-111.435 49.694-105.412 108.424zM888.471 828.881c9.035 16.565 18.071 33.129 27.106 51.2 7.529 13.553 3.012 19.576-12.047 19.576-43.671 0-85.835 0-128 0-13.553 0-21.082-6.024-28.612-16.565-34.635-67.765-70.776-135.529-105.412-203.294-45.176-84.329-88.847-171.671-134.024-257.506-55.718-103.906-109.929-209.318-164.141-313.224-9.035-18.071-18.071-36.141-28.612-52.706-12.047-21.082-22.588-43.671-31.624-64.753-6.024-10.541-3.012-15.059 9.035-15.059 24.094 0 46.682 0 69.271 0s46.682 0 69.271 0c9.035 0 15.059 4.518 19.576 12.047 9.035 21.082 21.082 40.659 31.624 61.741 48.188 94.871 99.388 189.741 147.576 284.612 46.682 91.859 96.376 185.224 143.059 277.082 40.659 72.282 78.306 144.565 115.953 216.847zM325.271 911.704c-18.071 1.506-37.647 1.506-55.718 0 16.565-7.529 39.153-7.529 55.718 0z" />
<glyph unicode="&#xe922;" glyph-name="pim" horiz-adv-x="998" d="M998 734.257c-0.6 22.5-14.7 41.6-35.2 47.8l-262.7 79.7-187.5 55.7c0 1.2-1.2 1.2-2.4 1.2s-1.2 0-2.4 0c-5.9 1.2-11.9 1.2-17.8 0-1.2 0-1.2 0-2.4 0 0-1.2-1.2-1.2-2.4-1.2l-100.7-29.6-99.7-29.7v-251.6l-111.6-21.4v239.8l-97.3-29.7-40.3-11.9c-21.4-5.9-35.6-24.9-35.6-47.4v-593.3c0-22.5 14.2-41.5 35.6-47.5l449.8-135.3c4.7-1.2 9.5-2.4 14.2-2.4s9.5 1.2 14.2 2.4l448.6 135.3c21.4 7.1 35.6 26.1 35.6 47.5v267c0 0-0.1 0-0.1 0l0.1 324.6zM899.7 391.757h-0.2v-213.6l-352.4-105.6v732.2l96.1-28.5 33.1-10.1v-173l111.5-21.3v160.4l112.5-34.2-0.6-306.3z" />
<glyph unicode="&#xe923;" glyph-name="attribute" horiz-adv-x="1050" d="M704.985 920.662c-22.318 19.692-52.513 30.195-84.021 30.195h-14.441c-30.195-1.313-63.015-19.692-86.646-45.949l-325.579-393.846 512 294.072c13.128 6.564 27.569 13.128 43.323 18.379 1.313 36.759-15.754 70.892-44.636 97.149zM766.687 728.99c-3.938-1.313-7.877-3.938-11.815-5.251l-479.179-275.692 607.836 93.21c15.754 2.626 34.133 2.626 49.887 1.313 23.631 42.010 23.631 91.897 0 131.282-22.318 40.697-65.641 66.954-112.903 66.954h-9.19c-6.564 0-14.441-1.313-24.944-3.938-6.564-2.626-13.128-5.251-19.692-7.877zM820.513 740.806c47.262 0 90.585-24.944 114.215-66.954 23.631-39.385 23.631-89.272 0-131.282-17.067 1.313-34.133 1.313-49.887-1.313l-609.149-93.21 477.867 275.692c3.938 1.313 7.877 3.938 11.815 5.251 6.564 2.626 13.128 6.564 19.692 7.877 10.503 2.626 19.692 3.938 24.944 3.938h10.503zM957.046 444.108c-11.815 5.251-22.318 6.564-31.508 6.564s-15.754 0-24.944-1.313l-467.364-73.518 517.251-94.523c27.569-6.564 55.138-17.067 78.769-31.508 15.754 24.944 23.631 56.451 19.692 89.272-7.877 49.887-43.323 91.897-91.897 105.026zM993.805 159.226c-15.754 13.128-36.759 23.631-59.077 27.569l-783.754 148.349-40.697-6.564c-66.954-10.503-114.215-69.579-110.277-136.533 0-2.626 0-3.938 1.313-6.564 0-2.626 1.313-6.564 1.313-10.503 1.313-11.815 9.19-27.569 14.441-38.072 18.379-32.821 51.2-55.138 86.646-61.703l785.067-145.723c34.133-6.564 69.579 0 98.462 21.005 28.882 19.692 47.262 49.887 53.826 84.021 6.564 38.072-3.938 76.144-27.569 107.651l-19.692 17.067zM137.846 117.216c-45.949 0-84.021 38.072-84.021 84.021s38.072 84.021 84.021 84.021c45.949 0 84.021-38.072 84.021-84.021s-36.759-84.021-84.021-84.021zM137.846 240.621c-22.318 0-38.072-15.754-38.072-38.072s17.067-39.385 38.072-39.385c18.379 0 38.072 17.067 38.072 38.072 1.313 23.631-15.754 39.385-38.072 39.385z" />
<glyph unicode="&#xe924;" glyph-name="attribute-family" horiz-adv-x="1050" d="M311.138 236.683c0-26.102-21.16-47.262-47.262-47.262s-47.262 21.16-47.262 47.262c0 26.102 21.16 47.262 47.262 47.262s47.262-21.16 47.262-47.262zM1014.81 578.016c-14.441 11.815-30.195 23.631-44.636 35.446-17.067 14.441-35.446 27.569-52.513 42.010-115.528 89.272-229.744 178.544-343.959 267.815-48.574 38.072-48.574 36.759-98.462-2.626-69.579-53.826-456.862-357.087-456.862-357.087-21.005-15.754-23.631-35.446-10.503-57.764 19.692-34.133 39.385-40.697 72.205-18.379 0-48.574 0-82.708 0-89.272 0-1.313 0-1.313 0-1.313 0-129.969 0-238.933 0-370.215 0-3.938 0-6.564 1.313-10.503 5.251-27.569 18.379-49.887 39.385-66.954 18.379-14.441 38.072-23.631 61.703-23.631 114.215 0 228.431 0 342.646 0s229.744 0 343.959 0c2.626 0 5.251 0 9.19 0 27.569 5.251 52.513 18.379 69.579 42.010 13.128 17.067 22.318 36.759 22.318 59.077 0 166.728 0 308.513 0 460.8 36.759-23.631 68.267-10.503 78.769 32.821 7.877 30.195-15.754 43.323-34.133 57.764zM682.667 584.58c3.938 2.626 9.19 3.938 13.128 5.251 6.564 1.313 13.128 2.626 17.067 2.626h6.564c31.508 0 60.39-17.067 76.144-44.636 15.754-26.256 15.754-59.077 0-86.646-10.503 1.313-22.318 0-32.821-1.313l-406.974-60.39 319.015 181.169c2.626 1.313 5.251 2.626 7.877 3.938zM518.564 700.108c15.754 18.379 36.759 28.882 57.764 30.195h9.19c21.005 0 40.697-6.564 55.138-19.692 19.692-17.067 31.508-40.697 31.508-64.328-10.503-3.938-19.692-7.877-28.882-11.815l-341.333-194.297 216.615 259.938zM865.149 126.406c-3.938-22.318-17.067-42.010-35.446-55.138-19.692-13.128-42.010-18.379-65.641-13.128l-522.503 95.836c-23.631 3.938-45.949 19.692-57.764 40.697-3.938 6.564-7.877 17.067-9.19 24.944 0 2.626 0 5.251-1.313 6.564 0 1.313 0 2.626 0 3.938-2.626 44.636 28.882 84.021 73.518 90.585l26.256 3.938 522.503-97.149c14.441-2.626 28.882-9.19 39.385-18.379l11.815-11.815c15.754-21.005 22.318-45.949 18.379-70.892zM857.272 268.19c-15.754 10.503-34.133 17.067-52.513 21.005l-343.959 63.015 311.138 47.262c6.564 1.313 10.503 1.313 17.067 1.313s13.128-1.313 21.005-3.938c31.508-9.19 55.138-36.759 61.703-69.579 1.313-22.318-2.626-42.010-14.441-59.077z" />
<glyph unicode="&#xe925;" glyph-name="attribute-group" horiz-adv-x="973" d="M247.040 312.137c-25.6 0-44.8-20.48-44.8-46.080s20.48-46.080 44.8-46.080c25.6 0 44.8 20.48 44.8 46.080s-20.48 46.080-44.8 46.080zM928 829.257c-24.32 20.48-53.76 26.88-84.48 26.88-20.48 0-40.96 0-61.44 0 0 0-204.8 0-344.32 0-6.4 0-12.8 0-19.2 0-12.8 0-20.48 5.12-25.6 16.64-7.68 17.92-17.92 34.56-25.6 52.48-8.96 19.2-21.76 25.6-42.24 25.6-80.64-1.28-163.84 0-245.76 0-3.84 0-8.96 0-14.080 0-12.8-1.28-23.040-6.4-29.44-20.48-7.68-17.92-16.64-34.56-25.6-51.2-6.4-12.8-10.24-28.16-10.24-44.8 0-32 0-72.96 0-115.2 0-32 0-38.4 0-70.4 0-103.68 0-195.84 0-202.24 1.28-143.36 1.28-263.68 1.28-408.32 0-3.84 0-7.68 1.28-11.52 5.12-30.72 20.48-55.040 43.52-74.24 19.2-15.36 42.24-25.6 67.84-25.6 124.16 0 249.6 0 373.76 0s250.88 0 375.040 0c2.56 0 6.4 0 8.96 0 30.72 6.4 57.6 20.48 76.8 46.080 14.080 19.2 24.32 40.96 24.32 65.28 0 248.32 0 446.72 0 693.76 1.28 10.24 1.28 17.92 0 26.88-7.68 29.44-21.76 52.48-44.8 70.4zM636.16 591.177c3.84 2.56 7.68 3.84 11.52 5.12 6.4 1.28 11.52 2.56 15.36 2.56h5.12c29.44 0 56.32-15.36 70.4-40.96 14.080-24.32 14.080-55.040 0-80.64-10.24 1.28-20.48 0-30.72-1.28l-375.040-57.6 296.96 170.24c1.28 1.28 3.84 1.28 6.4 2.56zM483.84 699.977c14.080 16.64 34.56 26.88 53.76 28.16h8.96c19.2 0 37.12-6.4 51.2-17.92 17.92-16.64 28.16-38.4 29.44-60.16-10.24-3.84-19.2-7.68-26.88-11.52l-318.72-181.76 202.24 243.2zM773.12 109.897c-17.92-12.8-39.68-16.64-61.44-12.8l-486.4 89.6c-21.76 3.84-42.24 17.92-53.76 38.4-2.56 6.4-7.68 15.36-8.96 23.040 0 2.56 0 5.12-1.28 6.4 0 1.28 0 2.56 0 3.84-2.56 42.24 26.88 78.080 67.84 84.48l24.32 3.84 485.12-90.88c14.080-2.56 26.88-8.96 37.12-16.64l11.52-11.52c15.36-19.2 21.76-42.24 17.92-66.56-2.56-20.48-15.36-38.4-32-51.2zM798.72 295.497c-15.36 8.96-32 16.64-48.64 19.2l-320 58.88 289.28 44.8c5.12 1.28 10.24 1.28 15.36 1.28 6.4 0 12.8-1.28 19.2-3.84 29.44-8.96 52.48-34.56 56.32-65.28 2.56-20.48-1.28-39.68-11.52-55.040z" />
<glyph unicode="&#xe926;" glyph-name="clear-cache" d="M316.16 602.697c-87.040-69.12-174.080-138.24-262.4-206.080-16.64-12.8-32-25.6-37.12-47.36 0-6.4 0-11.52 0-17.92 5.12-16.64 17.92-26.88 30.72-38.4 52.48 42.24 106.24 84.48 158.72 125.44 0 0 1.28-1.28 1.28-1.28-43.52-51.2-87.040-102.4-129.28-153.6 10.24-10.24 19.2-20.48 29.44-30.72 58.88 52.48 119.040 104.96 177.92 158.72 0 0 1.28-1.28 1.28-1.28-46.080-65.28-93.44-130.56-139.52-197.12 7.68-7.68 15.36-14.080 23.040-20.48 39.68 39.68 79.36 78.080 120.32 117.76 0 0 0 0 1.28 0-33.28-47.36-65.28-93.44-97.28-140.8 7.68-7.68 14.080-14.080 21.76-21.76 62.72 47.36 126.72 94.72 189.44 142.080 0 0 1.28-1.28 1.28-1.28-51.2-60.16-102.4-120.32-152.32-179.2 11.52-11.52 23.040-23.040 35.84-34.56 43.52 44.8 88.32 92.16 133.12 138.24 0 0 1.28-1.28 1.28-1.28-35.84-56.32-70.4-111.36-106.24-166.4 10.24-8.96 19.2-19.2 29.44-29.44 42.24 34.56 85.76 69.12 129.28 104.96 0 0 1.28-1.28 1.28-1.28-35.84-42.24-72.96-83.2-108.8-125.44 11.52-12.8 21.76-24.32 38.4-30.72 6.4 0 11.52 0 17.92 0 20.48 6.4 35.84 19.2 46.080 37.12 0 1.28 1.28 1.28 1.28 2.56 67.84 87.040 134.4 175.36 202.24 262.4 2.56 2.56 3.84 5.12 5.12 7.68-121.6 117.76-239.36 236.8-357.12 354.56-2.56-1.28-5.12-3.84-7.68-5.12zM1003.52 820.297c-14.080 60.16-64 104.96-124.16 112.64-2.56 0-3.84 1.28-6.4 1.28-10.24 0-20.48 0-30.72 0-5.12-1.28-10.24-2.56-15.36-2.56-37.12-7.68-65.28-28.16-88.32-56.32-25.6-29.44-43.52-65.28-60.16-99.84-21.76-42.24-46.080-83.2-75.52-121.6-19.2-24.32-42.24-28.16-66.56-11.52-6.4 3.84-11.52 8.96-16.64 14.080-16.64 16.64-33.28 33.28-49.92 48.64-17.92 16.64-44.8 20.48-61.44 5.12-19.2-17.92-35.84-38.4-52.48-56.32 124.16-124.16 252.16-250.88 378.88-378.88 15.36 15.36 30.72 30.72 46.080 46.080 21.76 21.76 21.76 51.2 0 72.96-16.64 16.64-33.28 33.28-49.92 49.92-5.12 6.4-11.52 12.8-15.36 20.48-11.52 21.76-7.68 43.52 11.52 58.88 5.12 5.12 11.52 8.96 16.64 12.8 42.24 32 89.6 56.32 136.96 80.64 30.72 16.64 60.16 34.56 85.76 60.16 19.2 19.2 32 40.96 39.68 67.84 2.56 7.68 3.84 15.36 5.12 23.040 0 10.24 0 19.2 0 29.44-5.12 8.96-6.4 15.36-7.68 23.040zM885.76 748.617c-34.56 0-62.72 26.88-62.72 61.44s28.16 62.72 62.72 62.72c33.28 0 61.44-28.16 61.44-62.72 0-33.28-28.16-61.44-61.44-61.44z" />
<glyph unicode="&#xe927;" glyph-name="copy" horiz-adv-x="845" d="M844.8 454.217c-53.76 53.76-108.8 110.080-163.84 165.12 0 52.48 0 106.24 0 160 0 47.36-28.16 75.52-74.24 75.52-20.48 0-42.24 1.28-62.72 0-21.76-1.28-33.28 7.68-38.4 30.72-8.96 39.68-40.96 65.28-80.64 65.28-58.88 0-117.76 0-177.92 0-39.68 0-67.84-25.6-71.68-65.28-2.56-19.2-12.8-29.44-32-29.44-20.48 0-42.24 0-62.72 0-53.76-1.28-80.64-26.88-80.64-81.92 0-207.36 0-416 0-623.36 0-53.76 25.6-80.64 79.36-80.64 58.88 0 116.48 0 177.92 0 0-24.32 0-47.36 0-70.4 1.28-40.96 30.72-72.96 69.12-72.96 151.040 0 300.8 0 451.84 0 35.84 0 66.56 29.44 66.56 65.28 0 153.6 0 305.92 0 462.080zM588.8 587.337c60.16-61.44 120.32-121.6 180.48-183.040-58.88 0-119.040 0-180.48 0 0 61.44 0 121.6 0 183.040zM199.68 760.137c20.48 23.040 20.48 51.2 26.88 78.080 6.4 24.32 25.6 39.68 51.2 39.68 40.96 1.28 83.2 1.28 124.16 0 28.16 0 51.2-23.040 55.040-52.48 1.28-11.52 1.28-23.040 5.12-33.28s8.96-20.48 15.36-32c-92.16 0-181.76 0-277.76 0zM773.12-0.183c-147.2 0-294.4 0-442.88 0 0 204.8 0 409.6 0 616.96 61.44 0 122.88 0 185.6 0 0-94.72 0-188.16 0-285.44 87.040 0 171.52 0 257.28 0 0-111.36 0-220.16 0-331.52z" />
<glyph unicode="&#xe928;" glyph-name="preview" d="M956.16 353.097v444.16c0 5.12-1.28 8.96-5.12 11.52-3.84 3.84-7.68 5.12-11.52 5.12h-853.76c-5.12 0-8.96-1.28-11.52-5.12-3.84-3.84-5.12-7.68-5.12-11.52v-444.16c0-5.12 1.28-8.96 5.12-11.52 3.84-3.84 7.68-5.12 11.52-5.12h853.76c5.12 0 8.96 1.28 11.52 5.12s5.12 7.68 5.12 11.52zM1024 797.257v-579.84c0-23.040-8.96-43.52-25.6-60.16s-37.12-25.6-60.16-25.6h-289.28c0-12.8 2.56-26.88 8.96-40.96s11.52-26.88 16.64-38.4c5.12-10.24 8.96-19.2 8.96-23.040 0-8.96-3.84-16.64-10.24-24.32-6.4-6.4-15.36-10.24-24.32-10.24h-273.92c-8.96 0-16.64 3.84-24.32 10.24-6.4 6.4-10.24 15.36-10.24 24.32 0 5.12 2.56 12.8 8.96 23.040 5.12 10.24 11.52 23.040 16.64 37.12s8.96 28.16 8.96 40.96h-289.28c-23.040 0-43.52 8.96-60.16 25.6s-25.6 37.12-25.6 60.16v581.12c0 23.040 8.96 43.52 25.6 60.16s37.12 25.6 60.16 25.6h853.76c23.040 0 43.52-8.96 60.16-25.6 15.36-16.64 24.32-37.12 24.32-60.16v0z" />
<glyph unicode="&#xe929;" glyph-name="stop" d="M128 822.857h768v-768h-768z" />
<glyph unicode="&#xe92a;" glyph-name="film" d="M0 822.857v-768h1024v768h-1024zM192 118.857h-128v128h128v-128zM192 374.857h-128v128h128v-128zM192 630.857h-128v128h128v-128zM768 118.857h-512v640h512v-640zM960 118.857h-128v128h128v-128zM960 374.857h-128v128h128v-128zM960 630.857h-128v128h128v-128zM384 630.857v-384l256 192z" />
<glyph unicode="&#xe92b;" glyph-name="help-circle-text" d="M597.76 118.857v128c0 6.4-2.56 11.52-6.4 15.36s-8.96 6.4-15.36 6.4h-128c-6.4 0-11.52-2.56-15.36-6.4s-6.4-8.96-6.4-15.36v-128c0-6.4 2.56-11.52 6.4-15.36s8.96-6.4 15.36-6.4h128c6.4 0 11.52 2.56 15.36 6.4s6.4 8.96 6.4 15.36zM768 566.857c0 39.68-12.8 75.52-37.12 108.8s-55.040 58.88-92.16 76.8c-37.12 19.2-74.24 28.16-113.92 28.16-107.52 0-190.72-47.36-247.040-142.080-6.4-10.24-5.12-20.48 5.12-28.16l88.32-66.56c2.56-2.56 7.68-3.84 12.8-3.84 7.68 0 12.8 2.56 16.64 7.68 23.040 30.72 42.24 51.2 57.6 61.44s34.56 15.36 57.6 15.36c21.76 0 40.96-6.4 57.6-17.92s25.6-24.32 25.6-39.68c0-16.64-3.84-30.72-12.8-40.96s-24.32-20.48-44.8-29.44c-28.16-12.8-53.76-32-76.8-57.6s-34.56-53.76-34.56-83.2v-24.32c0-6.4 2.56-11.52 6.4-15.36s8.96-6.4 15.36-6.4h128c6.4 0 11.52 2.56 15.36 6.4s6.4 8.96 6.4 15.36c0 8.96 5.12 19.2 14.080 33.28s21.76 24.32 35.84 33.28c14.080 7.68 25.6 14.080 33.28 19.2s17.92 12.8 30.72 23.040c12.8 11.52 23.040 21.76 29.44 32s12.8 24.32 19.2 40.96 3.84 34.56 3.84 53.76zM1024 438.857c0-93.44-23.040-177.92-69.12-257.28-46.080-78.080-107.52-140.8-186.88-186.88-78.080-44.8-162.56-67.84-256-67.84s-177.92 23.040-257.28 69.12c-78.080 46.080-140.8 107.52-186.88 186.88s-67.84 162.56-67.84 256 23.040 177.92 69.12 257.28 107.52 140.8 186.88 186.88 162.56 67.84 256 67.84 177.92-23.040 257.28-69.12 140.8-107.52 186.88-186.88c44.8-78.080 67.84-162.56 67.84-256z" />
<glyph unicode="&#xe92c;" glyph-name="reports" d="M503.040 374.857v448c-247.040 0-448-200.96-448-448s200.96-448 448-448 448 200.96 448 448c0 71.68-16.64 139.52-47.36 200.96l-400.64-200.96zM968.96 703.817c-74.24 145.92-226.56 247.040-401.92 247.040v-448l401.92 200.96z" />
<glyph unicode="&#xe92d;" glyph-name="menu-list" horiz-adv-x="1241" d="M173.77 950.857h-100.848c-40.339 0-72.921-32.582-72.921-72.921v-99.297c0-40.339 32.582-72.921 72.921-72.921h99.297c40.339 0 72.921 32.582 72.921 72.921v99.297c1.552 40.339-31.030 72.921-71.37 72.921zM1168.291 950.857h-690.424c-41.891 0-74.473-32.582-74.473-72.921v-99.297c0-40.339 32.582-72.921 72.921-72.921h690.424c40.339 0 72.921 32.582 72.921 72.921v99.297c1.552 40.339-31.030 72.921-71.37 72.921zM173.77 562.978h-100.848c-40.339 0-72.921-34.133-72.921-74.473v-99.297c0-40.339 32.582-74.473 72.921-74.473h99.297c40.339 0 72.921 32.582 72.921 72.921v99.297c1.552 41.891-31.030 76.024-71.37 76.024zM1168.291 562.978h-690.424c-40.339 0-72.921-32.582-72.921-72.921v-99.297c0-40.339 32.582-72.921 72.921-72.921h690.424c40.339 0 72.921 32.582 72.921 72.921v99.297c0 38.788-32.582 72.921-72.921 72.921zM173.77 173.548h-100.848c-40.339 0-72.921-32.582-72.921-72.921v-99.297c0-41.891 32.582-74.473 72.921-74.473h99.297c40.339 0 72.921 32.582 72.921 72.921v99.297c1.552 41.891-31.030 74.473-71.37 74.473zM1168.291 173.548h-690.424c-40.339 0-72.921-32.582-72.921-72.921v-99.297c0-40.339 32.582-72.921 72.921-72.921h690.424c40.339 0 72.921 32.582 72.921 72.921v99.297c0 40.339-32.582 72.921-72.921 72.921z" />
<glyph unicode="&#xe92e;" glyph-name="role-access-right" d="M286.72 196.937c7.68 42.24 17.92 83.2 37.12 122.88 5.12 10.24 10.24 20.48 20.48 28.16s20.48 15.36 33.28 20.48c10.24 3.84 20.48 7.68 30.72 12.8 17.92 7.68 35.84 15.36 55.040 21.76 24.32 7.68 46.080 20.48 65.28 35.84 5.12 3.84 8.96 7.68 15.36 8.96 1.28-1.28 2.56-1.28 3.84-2.56 17.92-16.64 38.4-28.16 61.44-35.84 24.32-7.68 48.64-8.96 74.24-1.28 20.48 6.4 37.12 16.64 53.76 29.44 6.4 5.12 11.52 11.52 19.2 15.36 2.56-2.56 6.4-5.12 8.96-7.68 11.52-12.8 24.32-21.76 39.68-29.44 10.24-5.12 20.48-8.96 30.72-14.080 20.48-8.96 40.96-16.64 62.72-24.32 19.2-6.4 37.12-14.080 52.48-26.88 5.12-3.84 8.96-7.68 12.8-12.8 11.52-16.64 19.2-35.84 25.6-55.040 8.96-25.6 14.080-51.2 19.2-76.8 7.68-38.4 11.52-78.080 15.36-117.76 0 0 1.28 0 1.28 0 0-5.12 0-11.52 0-16.64 0-8.96 0-17.92 0-25.6-3.84-3.84-2.56-8.96-5.12-12.8-1.28-3.84-3.84-6.4-7.68-8.96-23.040-10.24-46.080-17.92-70.4-25.6-25.6-7.68-52.48-14.080-79.36-19.2-25.6-5.12-52.48-8.96-78.080-14.080-30.72-5.12-60.16-7.68-90.88-10.24-23.040-2.56-47.36-2.56-70.4-1.28-40.96 2.56-81.92 7.68-122.88 14.080-46.080 7.68-92.16 16.64-136.96 29.44-26.88 7.68-52.48 16.64-78.080 26.88-5.12 2.56-7.68 5.12-8.96 8.96-5.12 11.52-6.4 24.32-5.12 37.12 2.56 42.24 6.4 84.48 15.36 126.72zM1.28 182.857c1.28 15.36 2.56 29.44 5.12 44.8 5.12 37.12 12.8 74.24 26.88 108.8 7.68 21.76 20.48 38.4 40.96 47.36 19.2 7.68 38.4 16.64 58.88 23.040 23.040 7.68 44.8 17.92 62.72 33.28 1.28 1.28 2.56 2.56 5.12 2.56 3.84-1.28 7.68-5.12 11.52-7.68 11.52-8.96 24.32-15.36 38.4-20.48 26.88-8.96 51.2-6.4 75.52 7.68 11.52 6.4 21.76 15.36 33.28 24.32 11.52-15.36 28.16-25.6 47.36-34.56-8.96-3.84-16.64-7.68-24.32-11.52-20.48-6.4-38.4-16.64-55.040-29.44-7.68-6.4-15.36-14.080-21.76-23.040-16.64-26.88-26.88-55.040-34.56-84.48-15.36-51.2-23.040-104.96-28.16-157.44-1.28-8.96-1.28-17.92-2.56-28.16-8.96 1.28-17.92 2.56-26.88 2.56-38.4 3.84-75.52 10.24-112.64 17.92-25.6 6.4-51.2 14.080-76.8 23.040-16.64 10.24-16.64 10.24-24.32 24.32 0 11.52 0 23.040 0 34.56 1.28 0 1.28 1.28 1.28 2.56zM811.52 625.737c-1.28-5.12-3.84-10.24-7.68-14.080-2.56-2.56-3.84-6.4-5.12-10.24-2.56-11.52-5.12-23.040-8.96-34.56-8.96-28.16-23.040-53.76-42.24-76.8-16.64-19.2-34.56-35.84-57.6-47.36-16.64-7.68-34.56-12.8-53.76-8.96-26.88 3.84-51.2 16.64-70.4 34.56-39.68 34.56-65.28 79.36-76.8 130.56-1.28 3.84-1.28 7.68-3.84 10.24-6.4 7.68-8.96 16.64-11.52 25.6-1.28 5.12-2.56 8.96-3.84 14.080-1.28 8.96-2.56 16.64-2.56 25.6 0 2.56 0 5.12 2.56 7.68 6.4 7.68 5.12 16.64 2.56 26.88-5.12 17.92-7.68 35.84-6.4 53.76 0 2.56 0 5.12 0 7.68 1.28 33.28 10.24 64 34.56 88.32 16.64 16.64 37.12 29.44 60.16 37.12 17.92 6.4 35.84 14.080 55.040 17.92 20.48 5.12 40.96 11.52 62.72 10.24 11.52-1.28 21.76-2.56 32-6.4 25.6-11.52 48.64-28.16 67.84-48.64 12.8-14.080 24.32-30.72 30.72-49.92 6.4-17.92 6.4-35.84 6.4-55.040 0-20.48-3.84-39.68-6.4-58.88-1.28-6.4 0-11.52 5.12-16.64 3.84-3.84 5.12-7.68 5.12-12.8s0-10.24 0-15.36c-1.28-11.52-5.12-23.040-7.68-34.56zM398.080 573.257c-5.12-8.96-8.96-17.92-10.24-28.16-3.84-19.2-12.8-37.12-24.32-53.76-10.24-16.64-24.32-30.72-39.68-40.96-23.040-16.64-47.36-20.48-72.96-8.96-26.88 11.52-46.080 30.72-62.72 55.040-11.52 17.92-20.48 37.12-25.6 57.6-1.28 6.4-3.84 11.52-7.68 16.64-1.28 2.56-1.28 6.4-2.56 8.96-1.28 6.4-3.84 12.8-3.84 19.2-1.28 7.68-2.56 15.36 1.28 23.040 2.56 5.12 3.84 10.24 2.56 16.64-2.56 14.080-6.4 28.16-6.4 42.24 0 1.28 0 1.28 0 2.56 0 40.96 17.92 70.4 53.76 89.6 17.92 8.96 38.4 15.36 57.6 20.48 15.36 3.84 30.72 8.96 48.64 7.68 7.68-1.28 14.080-1.28 20.48-5.12 17.92-7.68 33.28-17.92 47.36-32s25.6-32 29.44-52.48c3.84-16.64 2.56-33.28 0-49.92-1.28-7.68-2.56-15.36-2.56-23.040 0-5.12 0-8.96 3.84-12.8 2.56-2.56 3.84-6.4 3.84-10.24 0-5.12 0-10.24-1.28-14.080-2.56-11.52-3.84-20.48-8.96-28.16z" />
<glyph unicode="&#xe92f;" glyph-name="store-admin" horiz-adv-x="998" d="M998.4 496.457c0 3.84-1.28 8.96-2.56 12.8-5.12 19.2-23.040 32-42.24 32-17.92 0-34.56 0-52.48 0-2.56 0-5.12 0-7.68 0-2.56 8.96-6.4 16.64-10.24 25.6 1.28 1.28 3.84 2.56 5.12 5.12 11.52 11.52 24.32 24.32 35.84 35.84 7.68 7.68 12.8 17.92 14.080 29.44 1.28 12.8-3.84 24.32-12.8 33.28-12.8 12.8-26.88 26.88-39.68 39.68-7.68 7.68-15.36 16.64-24.32 24.32-8.96 8.96-19.2 12.8-32 11.52-11.52 0-21.76-5.12-29.44-12.8-12.8-12.8-25.6-25.6-38.4-38.4-1.28-1.28-2.56-3.84-3.84-3.84-8.96 3.84-16.64 7.68-25.6 10.24 0 17.92 0 37.12 0 55.040 0 3.84 0 7.68-1.28 12.8-2.56 19.2-20.48 35.84-42.24 35.84-15.36 0-32 0-47.36 0v-221.44c1.28 0 2.56 0 3.84 0 70.4 1.28 134.4-60.16 131.84-138.24-2.56-67.84-60.16-129.28-134.4-128 0 0 0 0 0 0v-221.44c15.36 0 32 0 47.36 0 21.76 0 37.12 15.36 40.96 30.72 1.28 5.12 2.56 10.24 2.56 15.36 0 16.64 0 34.56 0 51.2 0 2.56 0 3.84 0 6.4 8.96 2.56 16.64 6.4 25.6 10.24 1.28-1.28 2.56-3.84 3.84-5.12 11.52-11.52 24.32-24.32 35.84-35.84 7.68-8.96 17.92-12.8 29.44-14.080 12.8 0 24.32 3.84 33.28 12.8 19.2 19.2 38.4 38.4 56.32 57.6 2.56 2.56 5.12 3.84 6.4 6.4 7.68 8.96 12.8 20.48 11.52 33.28-1.28 11.52-5.12 20.48-12.8 28.16-10.24 10.24-21.76 21.76-32 32-2.56 2.56-6.4 6.4-8.96 8.96 3.84 8.96 7.68 16.64 10.24 25.6 1.28 0 2.56 0 3.84 0 17.92 0 34.56 0 52.48 0 5.12 0 10.24 1.28 15.36 2.56 16.64 5.12 30.72 20.48 32 42.24 2.56 33.28 2.56 62.72 2.56 92.16zM727.040 451.657c0 49.92-39.68 87.040-87.040 88.32-1.28 0-2.56 0-3.84 0v-176.64c1.28 0 2.56 0 3.84 0 48.64 1.28 87.040 39.68 87.040 88.32zM0 29.257l592.64-102.4v1024l-592.64-153.6v-768zM263.68 632.137h81.92l153.6-386.56h-84.48l-33.28 88.32h-153.6l-32-88.32h-81.92l149.76 386.56zM303.36 557.897l-60.16-166.4h120.32z" />
<glyph unicode="&#xe930;" glyph-name="inventory" horiz-adv-x="896" d="M101.12 27.977c0 241.92 0 482.56 0 724.48 24.32 0 46.080 0 69.12 0 12.8 0 19.2-3.84 24.32-15.36 11.52-25.6 32-38.4 61.44-39.68 66.56-1.28 133.12-1.28 199.68 0 32 0 55.040 12.8 67.84 42.24 2.56 5.12 3.84 12.8 11.52 11.52 21.76 0 44.8 1.28 69.12-2.56 0-26.88 0-51.2 0-75.52 0-8.96 0-16.64 5.12-24.32 11.52-21.76 34.56-32 57.6-25.6 21.76 5.12 37.12 23.040 37.12 48.64 0 39.68 0 79.36 0 119.040-2.56 32-26.88 57.6-57.6 62.72-10.24 1.28-19.2 1.28-29.44 1.28-56.32 0-111.36 0-167.68 0-10.24 56.32-38.4 96-98.56 96s-87.040-39.68-97.28-96c-60.16 0-120.32-1.28-179.2 0-42.24 1.28-74.24-30.72-74.24-74.24 1.28-148.48 0-296.96 0-445.44 0-113.92 0-229.12 1.28-343.040 0-38.4 26.88-65.28 64-65.28 190.72 0 380.16 0 570.88 0 32 0 57.6 20.48 65.28 49.92 3.84 16.64 3.84 33.28 0 51.2-200.96 0-399.36 0-600.32 0zM352 898.377c21.76 0 42.24-20.48 42.24-42.24 0-23.040-19.2-43.52-43.52-42.24-23.040 0-40.96 19.2-42.24 42.24 0 23.040 19.2 42.24 43.52 42.24zM648.96 579.657c-136.96 0-247.040-111.36-247.040-249.6 0-136.96 108.8-248.32 241.92-249.6 135.68-1.28 250.88 106.24 252.16 250.88 1.28 134.4-111.36 248.32-247.040 248.32zM765.44 415.817c-20.48-40.96-40.96-81.92-60.16-122.88-15.36-30.72-30.72-61.44-46.080-90.88-17.92-33.28-44.8-37.12-69.12-6.4-21.76 26.88-42.24 53.76-61.44 81.92-14.080 19.2-11.52 35.84 2.56 49.92 16.64 15.36 38.4 15.36 53.76-2.56 10.24-11.52 20.48-24.32 32-39.68 29.44 57.6 56.32 111.36 84.48 163.84 6.4 11.52 12.8 21.76 28.16 23.040 14.080 1.28 26.88-2.56 35.84-14.080 6.4-14.080 6.4-28.16 0-42.24zM186.88 570.697v-119.040h117.76v119.040h-117.76zM272.64 484.937h-53.76v53.76h53.76v-53.76zM186.88 406.857v-119.040h117.76v119.040h-117.76zM272.64 321.097h-53.76v53.76h53.76v-53.76zM186.88 241.737v-119.040h117.76v119.040h-117.76zM272.64 155.977h-53.76v53.76h53.76v-53.76z" />
<glyph unicode="&#xe931;" glyph-name="payment" d="M884.48 758.857c-175.36-2.56-350.72-1.28-526.080-1.28-75.52 0-152.32 1.28-227.84 0-80.64-1.28-128-40.96-129.28-113.92-2.56-92.16 0-185.6 0-281.6 343.040 0 680.96 0 1018.88 0 1.28 5.12 2.56 7.68 2.56 11.52 0 83.2-2.56 166.4 1.28 249.6 5.12 96-53.76 136.96-139.52 135.68zM345.6 488.777c-26.88-34.56-66.56-38.4-122.88-14.080-56.32-25.6-94.72-20.48-122.88 14.080-25.6 32-24.32 70.4 2.56 99.84 30.72 33.28 65.28 37.12 120.32 8.96 55.040 26.88 89.6 24.32 120.32-8.96 24.32-26.88 25.6-69.12 2.56-99.84zM2.56 232.777c11.52-79.36 51.2-113.92 131.84-113.92 161.28 0 323.84 0 485.12 0 96 0 192-1.28 286.72 0 72.96 1.28 117.76 48.64 110.080 112.64-336.64 1.28-674.56 1.28-1013.76 1.28z" />
<glyph unicode="&#xe932;" glyph-name="price" horiz-adv-x="1170" d="M1025.463 544.183c0 30.72 0 62.903 0 93.623 0 4.389-1.463 8.777-4.389 11.703-32.183 29.257-67.291 51.2-109.714 64.366-8.777 2.926-14.629 1.463-21.943-4.389-24.869-17.554-59.977-17.554-84.846 1.463-24.869 17.554-36.571 49.737-29.257 78.994 14.629 55.589 78.994 74.606 122.88 38.034 4.389-2.926 7.314-7.314 11.703-8.777 40.96-7.314 78.994-23.406 115.566-45.349 0 51.2 0 100.937 0 149.211 0 19.017-5.851 24.869-26.331 24.869-125.806 0-251.611 0-377.417 0-10.24 0-17.554-2.926-24.869-10.24-194.56-193.097-390.583-387.657-586.606-583.68-14.629-14.629-14.629-21.943 0-36.571 127.269-127.269 253.074-253.074 380.343-380.343 14.629-14.629 23.406-14.629 36.571 0 70.217 70.217 140.434 140.434 210.651 210.651 125.806 124.343 250.149 250.149 375.954 374.491 7.314 7.314 11.703 13.166 11.703 21.943zM1164.434 529.554c-21.943 102.4-80.457 178.469-172.617 228.206-52.663 29.257-109.714 40.96-169.691 35.109-17.554-1.463-23.406-8.777-20.48-27.794 0-4.389 1.463-8.777 5.851-13.166 2.926 0 7.314 0 11.703 1.463 24.869 2.926 48.274 2.926 73.143-1.463 67.291-13.166 124.343-46.811 168.229-99.474 52.663-62.903 78.994-134.583 64.366-217.966-14.629-80.457-87.771-143.36-169.691-146.286-38.034-1.463-73.143 2.926-108.251 17.554-2.926 1.463-5.851 2.926-8.777 0-8.777-8.777-19.017-17.554-29.257-26.331 77.531-33.646 153.6-42.423 229.669-8.777 103.863 42.423 147.749 150.674 125.806 258.926z" />
<glyph unicode="&#xe933;" glyph-name="profiles" horiz-adv-x="768" d="M207.36 186.697l-179.2-97.28c-10.24-6.4-20.48-12.8-28.16-20.48 103.68-88.32 238.080-142.080 385.28-142.080 145.92 0 279.040 52.48 382.72 139.52-8.96 7.68-20.48 15.36-32 21.76l-190.72 96c-24.32 12.8-39.68 38.4-39.68 65.28v75.52c5.12 6.4 11.52 14.080 17.92 23.040 25.6 37.12 46.080 78.080 58.88 120.32 24.32 7.68 42.24 30.72 42.24 57.6v80.64c0 17.92-7.68 33.28-20.48 44.8v116.48c0 0 24.32 181.76-220.16 181.76-243.2 1.28-218.88-180.48-218.88-180.48v-116.48c-12.8-11.52-20.48-26.88-20.48-44.8v-80.64c0-21.76 11.52-39.68 28.16-51.2 20.48-88.32 72.96-151.040 72.96-151.040v-74.24c-1.28-25.6-15.36-49.92-38.4-64v0z" />
<glyph unicode="&#xe934;" glyph-name="shipping" d="M1024 401.737c0 14.080-2.56 26.88-8.96 39.68-34.56 64-70.4 125.44-108.8 186.88-6.4 11.52-15.36 21.76-25.6 29.44-7.68 6.4-16.64 10.24-26.88 10.24-40.96 0-81.92 1.28-122.88 2.56-6.4 0-12.8-1.28-19.2 1.28-2.56 5.12-1.28 11.52-1.28 17.92 0 32 0 65.28-1.28 97.28 0 19.2-12.8 32-32 33.28-12.8 0-24.32 1.28-37.12 1.28-197.12 1.28-395.52 1.28-593.92 1.28-30.72 0-46.080-15.36-46.080-44.8 0-188.16 0-376.32 0-563.2 0-3.84 0-7.68 0-11.52 1.28-15.36 16.64-33.28 30.72-33.28 28.16-1.28 57.6 0 85.76 0 21.76 80.64 76.8 112.64 131.84 116.48 28.16 1.28 56.32-5.12 80.64-19.2 35.84-23.040 57.6-55.040 66.56-96 92.16 0 183.040 0 275.2 0 17.92 67.84 58.88 112.64 133.12 115.2 80.64 2.56 125.44-43.52 147.2-115.2 12.8 0 24.32 0 34.56 0 26.88 0 39.68 14.080 39.68 39.68-1.28 62.72-1.28 126.72-1.28 190.72zM750.080 400.457c0 62.72 0 125.44 0 189.44 2.56 3.84 7.68 2.56 12.8 2.56 25.6 0 51.2-1.28 76.8 0 11.52 0 17.92-3.84 23.040-12.8 11.52-20.48 24.32-40.96 35.84-61.44 17.92-32 35.84-65.28 55.040-97.28 2.56-5.12 6.4-11.52 7.68-20.48-72.96 0-142.080 0-211.2 0zM254.72 245.577c-51.2 0-98.56-43.52-97.28-96s43.52-93.44 97.28-93.44c55.040 0 99.84 42.24 98.56 94.72 0 57.6-49.92 93.44-98.56 94.72zM807.68 244.297c-44.8 3.84-97.28-33.28-98.56-94.72 0-51.2 43.52-92.16 94.72-94.72 49.92-2.56 99.84 37.12 101.12 94.72 2.56 40.96-34.56 97.28-97.28 94.72z" />
<glyph unicode="&#xe935;" glyph-name="stores" horiz-adv-x="1078" d="M1017.4 910.857h-957.6v-119.7h957.6v119.7zM1077.3 312.357v119.7l-59.8 299.2h-957.7l-59.8-299.2v-119.7h59.8v-359.1h598.5v359.1h239.4v-359.1h119.7v359.1h59.9zM538.6 72.957h-359.1v239.4h359.1v-239.4z" />
<glyph unicode="&#xe936;" glyph-name="tax" d="M1020.16 182.857c-26.88 124.16-55.040 248.32-83.2 372.48-12.8 55.040-44.8 79.36-102.4 78.080-60.16-2.56-121.6 0-181.76-1.28-30.72 0-44.8 2.56-44.8 42.24 0 74.24-40.96 113.92-102.4 111.36-57.6-2.56-98.56-42.24-97.28-111.36 1.28-38.4-10.24-43.52-42.24-42.24-62.72 1.28-126.72 0-189.44 0-43.52 0-79.36-14.080-89.6-61.44-23.040-103.68-46.080-202.24-67.84-317.44-29.44-142.080-43.52-160 106.24-160 262.4 0 524.8 0 785.92 0 125.44 0 116.48 47.36 108.8 89.6zM509.44 730.697c30.72-1.28 46.080-20.48 49.92-48.64-6.4-30.72-21.76-49.92-52.48-48.64-32 0-48.64 20.48-47.36 51.2 0 28.16 19.2 47.36 49.92 46.080zM367.36 298.057h-49.92v121.6h-49.92v39.68h149.76v-39.68h-49.92v-121.6zM701.44 298.057l-32 51.2-32-51.2h-106.24l-7.68 26.88h-56.32l-7.68-26.88h-49.92l60.16 161.28h53.76l58.88-161.28 55.040 83.2-49.92 76.8h55.040l28.16-49.92 28.16 49.92h53.76l-49.92-78.080 55.040-83.2h-56.32zM477.44 359.497h35.84l-17.92 57.6z" />
<glyph unicode="&#xe937;" glyph-name="warehouse" horiz-adv-x="1280" d="M1244.8 606.857c11.2 28.8 22.4 57.6 35.2 88-30.4 12.8-57.6 24-84.8 35.2-46.4 19.2-92.8 36.8-137.6 54.4-51.2 20.8-104 41.6-155.2 62.4-40 16-80 32-120 49.6-40 16-80 30.4-120 48-16 8-30.4 8-46.4 1.6-30.4-12.8-60.8-25.6-91.2-36.8-38.4-16-78.4-30.4-116.8-46.4-59.2-24-118.4-48-177.6-72-35.2-16-72-32-108.8-46.4-30.4-11.2-59.2-27.2-91.2-35.2-9.6-3.2-22.4-6.4-30.4-16 8-30.4 22.4-56 32-86.4 36.8 14.4 73.6 30.4 110.4 44.8 0-180.8 0-452.8 0-635.2-22.4 0-43.2 0-64 0 0-22.4 0-68.8 0-89.6 374.4 0 747.2 0 1121.6 0 0 22.4 0 67.2 0 91.2-20.8 0-41.6 0-64 0 0 180.8 0 452.8 0 633.6 36.8-14.4 72-28.8 108.8-44.8zM995.2 19.657h-84.8v204.8h-81.6v-28.8h-75.2v28.8h-81.6v-204.8h-80v204.8h-84.8v-28.8h-75.2v28.8h-80v-206.4h-68.8v28.8c0 0 0 356.8 0 489.6 0 8 0 17.6 0 25.6 12.8 3.2 675.2 4.8 713.6 1.6-1.6-152-1.6-393.6-1.6-544zM508.8 454.857h-75.2v28.8h-81.6v-192h241.6v192h-84.8zM672 483.657v-192h240v192h-83.2v-28.8h-75.2v28.8z" />
<glyph unicode="&#xe938;" glyph-name="account" horiz-adv-x="998" d="M259.84 467.017c93.44-121.6 257.28-112.64 340.48 16.64 25.6 39.68 42.24 83.2 47.36 129.28 11.52 98.56-5.12 192-72.96 267.52-46.080 49.92-104.96 78.080-174.080 69.12-74.24-10.24-129.28-51.2-165.12-117.76-28.16-51.2-43.52-104.96-38.4-162.56-3.84-76.8 17.92-143.36 62.72-202.24zM572.16 17.737c-61.44 12.8-89.6 103.68-47.36 149.76-26.88 26.88-23.040 60.16-10.24 97.28-147.2-35.84-256 14.080-332.8 133.12-142.080-71.68-189.44-190.72-180.48-340.48 75.52-107.52 446.72-167.68 590.080-106.24-12.8 20.48-21.76 42.24-19.2 66.56zM947.2 166.217c11.52 23.040 40.96 25.6 51.2 49.92-6.4 15.36-5.12 33.28-20.48 44.8-20.48 6.4-42.24-3.84-64 5.12-6.4 24.32 17.92 44.8 11.52 69.12-11.52 12.8-24.32 24.32-40.96 29.44-20.48-7.68-34.56-29.44-57.6-35.84-19.2 17.92-10.24 51.2-37.12 66.56-11.52 0-25.6 3.84-39.68-2.56-17.92-16.64-12.8-43.52-28.16-64-26.88 2.56-38.4 30.72-62.72 34.56-15.36-8.96-33.28-16.64-40.96-33.28 2.56-23.040 20.48-42.24 14.080-66.56-23.040-7.68-46.080 2.56-67.84-5.12-12.8-12.8-14.080-30.72-17.92-44.8 14.080-23.040 40.96-26.88 55.040-49.92-14.080-23.040-43.52-26.88-56.32-52.48 8.96-11.52 5.12-30.72 19.2-40.96 21.76-10.24 47.36 5.12 69.12-7.68 1.28-25.6-14.080-44.8-16.64-67.84 11.52-15.36 25.6-25.6 42.24-32 24.32 6.4 37.12 33.28 61.44 34.56 16.64-20.48 10.24-49.92 33.28-66.56 14.080 1.28 29.44-5.12 43.52 3.84 17.92 17.92 10.24 47.36 29.44 64 23.040-6.4 35.84-29.44 58.88-35.84 15.36 8.96 32 16.64 39.68 32 1.28 25.6-20.48 43.52-12.8 67.84 21.76 7.68 46.080-3.84 65.28 6.4 11.52 14.080 12.8 29.44 16.64 44.8-7.68 26.88-37.12 29.44-47.36 52.48zM775.68 77.897c-49.92-1.28-89.6 38.4-89.6 87.040s39.68 89.6 88.32 88.32c47.36 0 85.76-37.12 87.040-85.76 1.28-47.36-37.12-88.32-85.76-89.6z" />
<glyph unicode="&#xe939;" glyph-name="attribute-configuration" horiz-adv-x="1107" d="M655.914 328.154c-22.141 2.768-44.281 5.535-66.422 8.303-1.384 0-1.384 1.384-2.768 1.384-4.151 12.454-8.303 24.908-13.838 35.978-2.768 6.919-5.535 12.454-9.686 17.989-1.384 1.384-1.384 2.768 0 4.151 12.454 19.373 26.292 38.746 38.746 58.119 1.384 1.384 1.384 2.768 0 4.151-27.676 27.676-55.351 56.735-83.027 84.411 0 0-1.384 1.384-1.384 1.384s-1.384-1.384-1.384-1.384c-19.373-13.838-38.746-29.059-58.119-42.897-1.384-1.384-2.768-1.384-4.151 0-12.454 6.919-24.908 13.838-38.746 19.373-5.535 1.384-9.686 2.768-15.222 4.151-1.384 0-1.384 1.384-2.768 2.768-4.151 23.524-8.303 47.049-11.070 70.573 0 1.384-1.384 1.384-2.768 1.384-17.989 0-37.362 0-55.351 0s-37.362 0-55.351 0c-1.384 0-1.384 0-2.768-1.384-4.151-23.524-8.303-47.049-11.070-70.573 0-1.384-1.384-2.768-2.768-2.768-5.535-1.384-9.686-2.768-15.222-4.151-13.838-4.151-26.292-11.070-38.746-19.373-1.384-1.384-2.768-1.384-4.151 0-19.373 13.838-38.746 29.059-58.119 42.897 0 0-1.384 1.384-1.384 1.384-1.384 0-1.384-1.384-1.384-1.384-27.676-27.676-55.351-56.735-83.027-84.411-1.384-1.384-1.384-2.768 0-4.151 12.454-19.373 26.292-38.746 38.746-58.119 1.384-1.384 1.384-2.768 0-4.151-4.151-5.535-6.919-12.454-9.686-17.989-5.535-12.454-9.686-24.908-13.838-35.978 0-1.384-1.384-1.384-2.768-1.384-22.141-2.768-44.281-5.535-66.422-8.303 0 0 0 0 0-2.768 0-38.746 0-77.492 0-117.622 0-1.384 0-2.768 1.384-2.768 9.686-1.384 20.757-2.768 30.443-5.535 12.454-2.768 26.292-4.151 38.746-6.919 1.384 0 2.768-1.384 2.768-2.768 1.384-4.151 1.384-8.303 2.768-12.454 4.151-15.222 12.454-29.059 19.373-42.897 1.384-1.384 1.384-2.768 0-4.151-12.454-19.373-26.292-38.746-38.746-58.119-1.384-1.384-1.384-2.768 0-4.151 27.676-27.676 55.351-56.735 83.027-84.411 1.384-1.384 2.768-1.384 4.151 0 19.373 13.838 38.746 26.292 58.119 38.746 1.384 0 1.384 1.384 2.768 0 17.989-8.303 35.978-16.605 55.351-23.524 1.384 0 1.384-1.384 1.384-2.768 4.151-23.524 8.303-47.049 11.070-71.957 0-1.384 1.384-2.768 2.768-2.768 16.605 0 34.595 0 51.2 0s34.595 0 51.2 0c1.384 0 2.768 0 2.768 2.768 4.151 23.524 8.303 47.049 11.070 71.957 0 1.384 0 1.384 1.384 2.768 17.989 6.919 37.362 15.222 55.351 23.524 1.384 0 2.768 0 2.768 0 19.373-12.454 38.746-26.292 58.119-38.746 1.384-1.384 2.768-1.384 4.151 0 27.676 27.676 55.351 56.735 83.027 84.411 1.384 1.384 1.384 2.768 0 4.151-12.454 19.373-26.292 38.746-38.746 58.119-1.384 1.384-1.384 2.768 0 4.151 8.303 13.838 15.222 27.676 19.373 42.897 1.384 4.151 2.768 8.303 2.768 12.454 0 1.384 1.384 2.768 2.768 2.768 12.454 2.768 26.292 4.151 38.746 6.919 9.686 1.384 20.757 2.768 30.443 5.535 1.384 0 1.384 1.384 1.384 2.768 0 38.746 0 77.492 0 117.622 5.535 2.768 5.535 2.768 2.768 2.768zM329.341 139.96c-70.573 0-123.157 53.968-123.157 125.924 0 70.573 53.968 125.924 123.157 125.924 0 0 0 0 0 0v0c70.573 0 123.157-53.968 123.157-125.924s-52.584-125.924-123.157-125.924zM773.535 806.943c13.838 6.919 26.292 13.838 42.897 17.989 0 35.978-16.605 70.573-45.665 95.481-23.524 19.373-52.584 30.443-83.027 30.443h-13.838c-30.443-1.384-62.27-19.373-84.411-45.665l-152.216-185.427c35.978-11.070 70.573-26.292 102.4-45.665l233.859 132.843zM705.73 510.814l239.395 37.362c16.605 1.384 33.211 2.768 48.432 1.384 22.141 41.514 23.524 89.946 0 128.692-22.141 40.13-65.038 65.038-110.703 65.038h-8.303c-5.535 0-13.838-1.384-24.908-4.151-5.535-1.384-12.454-4.151-19.373-6.919-4.151-1.384-8.303-4.151-12.454-5.535l-196.497-114.854c33.211-29.059 60.886-63.654 84.411-101.016zM960.346 456.846l-213.103-33.211c9.686-27.676 17.989-56.735 23.524-87.178l239.395-44.281c27.676-5.535 53.968-16.605 77.492-31.827 15.222 24.908 22.141 55.351 19.373 88.562-8.303 48.432-42.897 89.946-89.946 103.784-12.454 4.151-22.141 6.919-30.443 5.535-9.686 1.384-16.605 1.384-26.292-1.384zM1051.676 173.171c-15.222 13.838-35.978 23.524-58.119 27.676l-215.87 41.514c-2.768-91.33-29.059-175.741-73.341-249.081l244.93-45.665c34.595-6.919 67.805 0 95.481 20.757 27.676 19.373 45.665 48.432 52.584 83.027 5.535 37.362-4.151 74.724-27.676 105.168l-17.989 16.605z" />
<glyph unicode="&#xe93a;" glyph-name="media-list" horiz-adv-x="1412" d="M771.531-60.784c0 1.766 0 1.766 0 0v0zM771.531-60.784c0 0 0 0 0 0s0 0 0 0 0 0 0 0 0 0 0 0zM783.89 574.802c-68.855-3.531-137.71 0-204.8 0-141.241 0-282.483 0-423.724 0-45.903 0-84.745-15.89-116.524-49.434-28.248-30.014-38.841-65.324-38.841-105.931 0-111.228 0-224.221 0-335.448 0-15.89 1.766-30.014 5.297-44.138 12.359-58.262 63.559-102.4 121.821-107.697 7.062 12.359 19.421 7.062 28.248 7.062 104.166 0 210.097 0 314.262 0 93.572 0 188.91 0 282.483 0 5.297 0 12.359 0 19.421 0 0 0 0 0 0 1.766 0 0 0 0 0 0s0 0 0 0 0 0 0 0c5.297 0 10.593 0 17.655 0-15.89-8.828-26.483-5.297-37.076-5.297-194.207 0-386.648 0-580.855 0-12.359 0-22.952 0-35.31-1.766 12.359-8.828 22.952-7.062 33.545-7.062 68.855 0 137.71 0 204.8 0 134.179 0 266.593 0 400.772 0 58.262 0 105.931 19.421 137.71 72.386 15.89 26.483 21.186 56.497 21.186 86.51 0 111.228 0 224.221 0 335.448 1.766 97.103-77.683 157.131-150.069 153.6zM241.876 458.278c-40.607 0-81.214 0-123.586 0-7.062 17.655 0 38.841-3.531 60.028 45.903 0 86.51 0 127.117 0 0-21.186 0-38.841 0-60.028zM467.862 48.678c-107.697-3.531-201.269 90.041-203.034 199.503 0 112.993 90.041 208.331 204.8 206.566 104.166-1.766 199.503-81.214 199.503-204.8 1.766-121.821-104.166-206.566-201.269-201.269zM662.069 950.857c-35.31-120.055-70.621-236.579-105.931-353.103 22.952-5.297 42.372-5.297 63.559 0 30.014 97.103 58.262 194.207 88.276 293.076 211.862-63.559 420.193-127.117 630.29-190.676-12.359-61.793-130.648-448.441-143.007-467.862-79.448 24.717-158.897 47.669-238.345 72.386-3.531-35.31 1.766-44.138 30.014-54.731 5.297-1.766 12.359-3.531 17.655-5.297 54.731-15.89 107.697-33.545 162.428-49.434 24.717-7.062 51.2-14.124 77.683-22.952 54.731 185.379 111.228 368.993 165.959 554.372-248.938 72.386-497.876 148.303-748.579 224.221zM1186.428 253.478c-42.372 104.166-82.979 203.034-125.352 305.434-30.014-21.186-58.262-40.607-86.51-58.262-19.421-12.359-30.014-24.717-21.186-49.434 3.531-8.828 1.766-19.421 1.766-28.248 0-31.779 0-63.559 0-98.869 77.683-24.717 153.6-47.669 231.283-70.621zM158.897 592.457c22.952 0 44.138 0 67.090 0 0 0 0 0 0 0 22.952 0 47.669 0 70.621 0 19.421 0 28.248 12.359 30.014 33.545 0 21.186-10.593 35.31-28.248 35.31-45.903 1.766-93.572 1.766-141.241 0-19.421 0-30.014-15.89-30.014-38.841 0-21.186 8.828-30.014 31.779-30.014zM840.386 728.402c-40.607-44.138-77.683-86.51-118.29-132.414 52.966-3.531 97.103 3.531 143.007-15.89-8.828 49.434-12.359 97.103-24.717 148.303zM1186.428 661.312c0 28.248-21.186 47.669-49.434 47.669-24.717 0-47.669-22.952-47.669-47.669 0-26.483 22.952-49.434 49.434-47.669 28.248 1.766 47.669 22.952 47.669 47.669zM160.662-64.315c1.766 0 3.531 0 3.531 0 195.972 0 391.945 0 582.621 0-3.531 0-5.297 0-8.828 0-192.441 0-384.883 0-577.324 0zM127.117-67.846c3.531 0 7.062 0 10.593 0 3.531 3.531 8.828 5.297 12.359 5.297-7.062-1.766-15.89 0-22.952-5.297zM760.938-64.315c1.766 0 3.531 0 5.297 0 3.531 0 5.297 1.766 5.297 1.766s-1.766 0-1.766 0c-3.531-1.766-5.297-1.766-8.828-1.766zM760.938-64.315c-5.297 0-8.828 0-14.124 0 5.297 0 8.828 0 14.124 0zM771.531-60.784c0 0 0 0 0 0s0-1.766 0 0c0-1.766 0-1.766 0 0zM150.069-64.315c3.531 0 7.062 0 10.593 0 0 0 0 0 0 0-3.531 0-7.062 0-10.593 0zM753.876-67.846c10.593 0 21.186-3.531 37.076 5.297-7.062 0-12.359 0-17.655 0 0 0 0 0-1.766-1.766 0-1.766-1.766-1.766-5.297-1.766-1.766 0-3.531 0-5.297 0-5.297 0-8.828 0-14.124 0-190.676 0-386.648 0-582.621 0-1.766 0-3.531 0-3.531 0s0 0 0 0c-3.531 0-7.062 0-10.593 0-5.297 0-8.828-1.766-12.359-5.297 12.359 0 22.952 1.766 35.31 1.766 194.207 1.766 386.648 1.766 580.855 1.766zM150.069-64.315c3.531 0 7.062 0 10.593 0 192.441 0 384.883 0 577.324 0 3.531 0 5.297 0 8.828 0 5.297 0 8.828 0 14.124 0 3.531 0 5.297 0 8.828 1.766 0 0 1.766 0 1.766 0s0 0 0 1.766c-7.062 0-14.124 0-19.421 0-93.572 0-188.91 0-282.483 0-104.166 0-210.097 0-314.262 0-8.828 0-21.186 7.062-28.248-7.062 7.062 5.297 15.89 3.531 22.952 3.531zM469.628 410.609c-88.276 1.766-158.897-65.324-160.662-158.897-1.766-102.4 86.51-162.428 155.366-158.897 82.979-5.297 162.428 63.559 162.428 155.366 0 97.103-70.621 160.662-157.131 162.428zM467.862 145.781c-58.262 0-104.166 45.903-105.931 102.4-1.766 63.559 49.434 109.462 105.931 109.462 56.497 1.766 105.931-49.434 105.931-107.697 0-56.497-47.669-104.166-105.931-104.166z" />
<glyph unicode="&#xe93b;" glyph-name="contents" d="M1024 438.857c0 48.64 0 96 0 144.64 0 84.48 0 168.96 0 254.72 0 17.92-3.84 35.84-11.52 51.2-21.76 40.96-56.32 61.44-103.68 61.44-264.96 0-529.92 0-794.88 0-2.56 0-5.12 0-8.96 0-14.080-1.28-29.44-5.12-42.24-11.52-40.96-21.76-62.72-56.32-62.72-102.4 0-264.96 0-531.2 0-796.16 0-3.84 0-7.68 0-10.24 1.28-20.48 7.68-39.68 20.48-56.32 24.32-32 56.32-47.36 96-47.36 263.68 0 527.36 0 791.040 0 3.84 0 7.68 0 12.8 0 21.76 1.28 40.96 7.68 57.6 20.48 30.72 23.040 47.36 55.040 47.36 93.44-1.28 133.12-1.28 264.96-1.28 398.080zM915.2 43.337c-134.4 0-268.8 0-403.2 0s-268.8 0-403.2 0c-7.68 0-10.24 2.56-10.24 10.24 0 218.88 0 439.040 0 657.92 0 7.68 1.28 10.24 8.96 10.24 268.8 0 537.6 0 806.4 0 10.24 0 10.24 0 10.24-10.24 0-218.88 0-437.76 0-657.92 1.28-7.68 0-10.24-8.96-10.24zM280.32 373.577c-49.92-1.28-81.92-40.96-81.92-84.48 1.28-47.36 39.68-83.2 84.48-81.92 47.36 2.56 83.2 39.68 80.64 84.48 0 48.64-38.4 81.92-83.2 81.92zM282.88 429.897c51.2 1.28 81.92 40.96 81.92 84.48-2.56 48.64-40.96 81.92-85.76 80.64-48.64-1.28-81.92-39.68-80.64-83.2 1.28-51.2 40.96-83.2 84.48-81.92zM753.92 559.177h-272.64c-25.6 0-47.36-20.48-47.36-47.36 0-25.6 20.48-47.36 47.36-47.36h271.36c25.6 0 47.36 20.48 47.36 47.36s-20.48 47.36-46.080 47.36zM753.92 336.457h-272.64c-25.6 0-47.36-20.48-47.36-47.36v0c0-25.6 20.48-47.36 47.36-47.36h271.36c25.6 0 47.36 20.48 47.36 47.36v0c0 26.88-20.48 47.36-46.080 47.36z" />
<glyph unicode="&#xe93c;" glyph-name="customer-configuration" d="M582.4 164.937c-6.4 0-12.8 1.28-19.2 1.28-7.68 1.28-15.36 3.84-20.48 10.24-12.8 12.8-17.92 28.16-19.2 44.8-1.28 15.36 0 29.44 1.28 44.8 2.56 25.6 21.76 40.96 43.52 46.080 11.52-2.56 17.92 3.84 17.92 14.080 0 1.28 1.28 2.56 1.28 5.12-16.64 17.92-19.2 28.16-17.92 52.48-28.16 14.080-57.6 26.88-84.48 44.8 0 1.28 1.28 2.56 1.28 2.56 19.2 21.76 30.72 46.080 38.4 72.96 1.28 3.84 3.84 7.68 6.4 10.24 29.44 34.56 47.36 72.96 40.96 120.32-1.28 10.24-3.84 17.92-16.64 20.48 0 23.040 0 46.080 0 67.84 0 16.64-1.28 32-6.4 47.36-11.52 38.4-33.28 67.84-69.12 85.76-24.32 12.8-49.92 17.92-76.8 19.2-24.32 1.28-47.36-1.28-71.68-7.68-66.56-19.2-101.12-76.8-103.68-138.24-1.28-24.32 0-47.36 0-71.68 0-2.56 0-6.4-3.84-6.4-7.68-1.28-10.24-7.68-11.52-14.080-3.84-16.64-2.56-33.28 1.28-48.64 6.4-29.44 20.48-55.040 40.96-76.8 2.56-2.56 3.84-5.12 5.12-8.96 5.12-21.76 14.080-40.96 26.88-58.88 3.84-5.12 7.68-10.24 12.8-15.36-1.28-2.56-3.84-2.56-5.12-3.84-32-19.2-66.56-34.56-101.12-49.92-30.72-14.080-62.72-26.88-93.44-42.24-14.080-7.68-26.88-17.92-37.12-30.72-19.2-24.32-33.28-51.2-43.52-80.64-8.96-26.88-14.080-55.040-17.92-81.92-2.56-15.36 3.84-25.6 16.64-32 6.4-3.84 12.8-6.4 19.2-7.68 26.88-7.68 53.76-12.8 80.64-16.64 20.48-2.56 42.24-5.12 64-8.96 23.040-3.84 46.080-5.12 70.4-7.68 21.76-2.56 42.24-2.56 64-3.84 23.040-1.28 46.080-1.28 67.84-2.56s43.52 2.56 65.28 1.28c19.2 0 38.4 2.56 57.6 2.56 1.28 0 2.56 0 3.84 0 14.080 1.28 28.16 2.56 42.24 3.84 10.24 1.28 19.2 1.28 29.44 2.56 1.28 0 1.28 1.28 2.56 1.28 0 3.84-2.56 5.12-3.84 7.68-11.52 15.36-10.24 30.72-2.56 47.36 2.56 5.12 6.4 10.24 10.24 15.36 2.56 2.56 2.56 5.12 1.28 8.96-3.84 5.12-5.12 8.96-7.68 14.080zM1020.16 269.897c-1.28 6.4-7.68 10.24-14.080 10.24s-14.080 0-20.48 0c-7.68 0-12.8 3.84-15.36 10.24-3.84 12.8-8.96 24.32-15.36 35.84-3.84 6.4-2.56 10.24 2.56 15.36s10.24 8.96 14.080 14.080c6.4 7.68 7.68 14.080 2.56 20.48-10.24 16.64-24.32 30.72-40.96 42.24-11.52 7.68-16.64 6.4-25.6-2.56-3.84-3.84-7.68-7.68-12.8-12.8-6.4-5.12-8.96-6.4-16.64-2.56-11.52 6.4-23.040 11.52-35.84 14.080-7.68 2.56-11.52 7.68-11.52 15.36 0 6.4-1.28 12.8 0 17.92 1.28 7.68-5.12 14.080-12.8 16.64-20.48 5.12-40.96 5.12-61.44 0-8.96-2.56-12.8-7.68-12.8-15.36 0-2.56 0-6.4 0-8.96s0-6.4 0-8.96c0-8.96-2.56-14.080-11.52-16.64-11.52-3.84-23.040-8.96-34.56-14.080-7.68-3.84-11.52-3.84-16.64 2.56-3.84 3.84-7.68 7.68-12.8 12.8-8.96 8.96-15.36 8.96-25.6 2.56-16.64-10.24-29.44-23.040-39.68-39.68-6.4-8.96-5.12-15.36 2.56-23.040 3.84-5.12 8.96-8.96 14.080-14.080 6.4-6.4 6.4-8.96 2.56-16.64-6.4-11.52-11.52-23.040-14.080-34.56-2.56-8.96-7.68-11.52-16.64-11.52-6.4 0-11.52 0-17.92 0-8.96 0-14.080-3.84-16.64-12.8-1.28-5.12-1.28-10.24-2.56-15.36-3.84-15.36-1.28-30.72 2.56-46.080 1.28-7.68 7.68-11.52 15.36-11.52 6.4 0 12.8 0 19.2 0 7.68 0 12.8-2.56 15.36-10.24 3.84-12.8 8.96-25.6 15.36-38.4 2.56-5.12 1.28-8.96-1.28-12.8-5.12-5.12-8.96-8.96-14.080-14.080-8.96-8.96-10.24-15.36-2.56-25.6 10.24-15.36 21.76-28.16 37.12-38.4 11.52-7.68 17.92-7.68 28.16 2.56 3.84 3.84 8.96 8.96 12.8 12.8s8.96 5.12 14.080 2.56c11.52-6.4 24.32-11.52 37.12-15.36 7.68-2.56 11.52-7.68 11.52-15.36 0-6.4 0-12.8 0-17.92 0-10.24 3.84-14.080 14.080-16.64 5.12-1.28 8.96-1.28 14.080-2.56 15.36-3.84 30.72-1.28 46.080 2.56 7.68 1.28 12.8 7.68 12.8 15.36 0 6.4 0 12.8 0 19.2 0 8.96 2.56 14.080 11.52 16.64 12.8 3.84 24.32 8.96 35.84 15.36 6.4 3.84 10.24 2.56 15.36-2.56 3.84-3.84 7.68-7.68 12.8-12.8 10.24-8.96 15.36-10.24 26.88-2.56 15.36 10.24 28.16 23.040 38.4 38.4 6.4 10.24 6.4 15.36-2.56 24.32-3.84 5.12-8.96 8.96-12.8 12.8-6.4 6.4-7.68 8.96-2.56 17.92 5.12 10.24 10.24 21.76 14.080 33.28 2.56 8.96 7.68 11.52 17.92 11.52 6.4 0 11.52 0 17.92 0 8.96 0 14.080 3.84 16.64 12.8 1.28 5.12 1.28 10.24 2.56 15.36 2.56 17.92-1.28 33.28-3.84 48.64zM788.48 115.017c-66.56-2.56-124.16 55.040-122.88 122.88 0 65.28 56.32 121.6 124.16 121.6 66.56 0 124.16-56.32 122.88-124.16-1.28-64-56.32-122.88-124.16-120.32z" />
<glyph unicode="&#xe93d;" glyph-name="customer-review" horiz-adv-x="1078" d="M1076.547 744.71c-2.695 110.484-103.747 206.147-214.232 206.147-215.579 0-429.811 0-644.042 0-8.084 0-16.168 0-24.253-1.347-130.695-21.558-196.716-130.695-194.021-225.011 2.695-109.137 0-218.274 1.347-327.411 0-14.821 0-30.989 2.695-45.811 22.905-110.484 111.832-181.895 223.663-183.242 17.516 0 33.684 0 52.547 0-21.558-68.716-41.768-133.389-61.979-199.411-4.042-13.474-8.084-28.295-1.347-40.421 16.168-4.042 25.6 4.042 35.032 12.126 24.253 20.211 48.505 41.768 72.758 61.979 64.674 55.242 128 110.484 192.674 165.726 106.442 0 212.884 0 317.979 0 21.558 0 41.768 1.347 61.979 5.389 94.316 17.516 175.158 106.442 176.505 202.105 4.042 122.611 5.389 246.568 2.695 369.179zM416.337 510.268c-2.695-45.811 18.863-86.232 13.474-134.737-40.421 20.211-78.147 39.074-115.874 59.284-36.379-18.863-74.105-37.726-114.526-57.937-9.432 45.811 16.168 86.232 10.779 132.042-21.558 30.989-57.937 55.242-87.579 90.274 40.421 22.905 87.579 8.084 133.389 32.337 16.168 32.337 36.379 71.411 57.937 113.179 22.905-43.116 41.768-80.842 59.284-115.874 44.463-21.558 91.621-8.084 134.737-30.989-32.337-30.989-63.326-60.632-91.621-87.579zM891.958 374.183c-44.463 22.905-80.842 40.421-121.263 60.632-35.032-17.516-72.758-36.379-113.179-57.937-12.126 47.158 16.168 87.579 8.084 130.695-28.295 29.642-56.589 59.284-87.579 91.621 39.074 22.905 86.232 8.084 132.042 30.989 17.516 33.684 37.726 71.411 59.284 114.526 20.211-40.421 39.074-78.147 57.937-114.526 41.768-24.253 91.621-9.432 134.737-32.337-32.337-30.989-61.979-61.979-92.968-91.621 8.084-41.768 14.821-82.189 22.905-132.042z" />
<glyph unicode="&#xe93e;" glyph-name="email-templates" d="M737.28 244.297c6.4 8.96 17.92 10.24 26.88 3.84l247.040-185.6c7.68 14.080 12.8 29.44 12.8 46.080 0 62.72 0 126.72-1.28 189.44-1.28 69.12 0 136.96 0 206.080 0 12.8-2.56 24.32-7.68 35.84-1.28 3.84-2.56 5.12-6.4 2.56-28.16-21.76-56.32-42.24-84.48-64-57.6-43.52-115.2-87.040-172.8-130.56-48.64-37.12-96-72.96-144.64-110.080-16.64-12.8-33.28-26.88-53.76-34.56-38.4-14.080-75.52-10.24-108.8 11.52-29.44 19.2-56.32 42.24-84.48 62.72-43.52 33.28-87.040 65.28-130.56 98.56-30.72 23.040-60.16 46.080-90.88 69.12-23.040 17.92-47.36 35.84-70.4 53.76-16.64 15.36-35.84 29.44-53.76 44.8-1.28 1.28-3.84 2.56-5.12 0-3.84-7.68-6.4-16.64-7.68-24.32-2.56-23.040-1.28-44.8-1.28-67.84 0-116.48 0-231.68 1.28-348.16 0-15.36 5.12-29.44 12.8-42.24l248.32 186.88c8.96 6.4 20.48 5.12 26.88-3.84s5.12-20.48-3.84-26.88l-244.48-184.32c14.080-10.24 29.44-16.64 46.080-16.64 142.080 0 284.16 0 424.96 0s281.6 0 421.12 0c19.2 0 35.84 6.4 51.2 17.92l-243.2 183.040c-7.68 6.4-10.24 17.92-3.84 26.88zM49.92 579.657c15.36-11.52 30.72-23.040 44.8-34.56 25.6-19.2 51.2-39.68 76.8-58.88 1.28-1.28 2.56-3.84 5.12-2.56 1.28 1.28 1.28 2.56 1.28 5.12 1.28 23.040-2.56 46.080 2.56 69.12 5.12 26.88 23.040 42.24 48.64 48.64 19.2 5.12 37.12 1.28 56.32 1.28 83.2 0 165.12 0 248.32 0 78.080 0 156.16 0 235.52 0 20.48 0 38.4-2.56 53.76-16.64 11.52-10.24 17.92-21.76 20.48-35.84 3.84-21.76 1.28-44.8 2.56-66.56 0-1.28-1.28-3.84 1.28-5.12 1.28 0 2.56 1.28 3.84 2.56 24.32 17.92 48.64 37.12 72.96 55.040 16.64 12.8 33.28 25.6 49.92 37.12 2.56 2.56 3.84 3.84 0 6.4-21.76 14.080-43.52 26.88-65.28 40.96-20.48 12.8-40.96 26.88-61.44 39.68-11.52 7.68-23.040 15.36-34.56 23.040-14.080 8.96-29.44 17.92-43.52 28.16-10.24 6.4-19.2 12.8-29.44 19.2-17.92 11.52-35.84 21.76-53.76 33.28-15.36 10.24-30.72 20.48-46.080 30.72-16.64 10.24-33.28 20.48-48.64 30.72-11.52 7.68-21.76 15.36-34.56 20.48-33.28 12.8-67.84 12.8-101.12-3.84-17.92-7.68-32-20.48-48.64-30.72-24.32-15.36-48.64-30.72-72.96-46.080-19.2-11.52-37.12-23.040-56.32-35.84-14.080-8.96-28.16-19.2-43.52-28.16-20.48-12.8-40.96-25.6-61.44-39.68-20.48-12.8-40.96-26.88-60.16-39.68-21.76-14.080-44.8-28.16-66.56-42.24-1.28-1.28 0-2.56 3.84-5.12zM619.52 536.137h-215.040c-14.080 0-25.6-11.52-25.6-25.6s11.52-25.6 25.6-25.6h213.76c14.080 0 25.6 11.52 25.6 25.6s-11.52 25.6-24.32 25.6zM619.52 450.377h-215.040c-14.080 0-25.6-11.52-25.6-25.6s11.52-25.6 25.6-25.6h213.76c14.080 0 25.6 11.52 25.6 25.6s-11.52 25.6-24.32 25.6zM619.52 365.897h-215.040c-14.080 0-25.6-11.52-25.6-25.6s11.52-25.6 25.6-25.6h213.76c14.080 0 25.6 11.52 25.6 25.6s-11.52 25.6-24.32 25.6z" />
<glyph unicode="&#xe93f;" glyph-name="slider-configuration" horiz-adv-x="922" d="M376.32-50.103c2.56 26.88-10.24 44.8-26.88 58.88-69.12 58.88-107.52 134.4-126.72 220.16-7.68 37.12-19.2 71.68-34.56 106.24-11.52 24.32-17.92 48.64-19.2 75.52-1.28 30.72-10.24 60.16-24.32 87.040-10.24 17.92-10.24 34.56 6.4 48.64 43.52 6.4 78.080-10.24 96-49.92 10.24-24.32 17.92-48.64 26.88-74.24 8.96-29.44 26.88-52.48 51.2-70.4 28.16-20.48 52.48-14.080 70.4 15.36 10.24 16.64 15.36 35.84 15.36 55.040-3.84 126.72 7.68 253.44 7.68 380.16 0 11.52 0 21.76 1.28 33.28 2.56 28.16 20.48 46.080 44.8 46.080 21.76 0 38.4-16.64 40.96-44.8 3.84-35.84 7.68-71.68 7.68-107.52 0-66.56 5.12-133.12 11.52-204.8 46.080-14.080 103.68-20.48 110.080-85.76 8.96-3.84 15.36-7.68 21.76-8.96 61.44-19.2 94.72-64 112.64-120.32 5.12-15.36 10.24-28.16 24.32-37.12 25.6-16.64 33.28-40.96 29.44-69.12-8.96-72.96-28.16-143.36-56.32-211.2-7.68-20.48-20.48-39.68-26.88-60.16-124.16-8.96-241.92-8.96-363.52 17.92zM143.36 712.777c-47.36 38.4-93.44 76.8-143.36 117.76 48.64 39.68 94.72 78.080 144.64 120.32 1.28-23.040 2.56-40.96 3.84-64 66.56 0 153.6 0 153.6 0v-112.64c0 0-85.76 0-151.040 0-8.96-20.48 0-40.96-7.68-61.44zM769.28 775.497c-64 0-75.52 0-142.080 0 0 38.4 0 72.96 0 111.36 66.56 0 76.8 0 139.52 0 15.36 19.2 2.56 38.4 12.8 60.16 47.36-38.4 92.16-75.52 140.8-115.2-47.36-38.4-93.44-76.8-140.8-115.2-10.24 17.92 1.28 37.12-10.24 58.88z" />
<glyph unicode="&#xe940;" glyph-name="theme-configuration" d="M311.040 719.177c129.28-129.28 257.28-258.56 386.56-389.12 0-1.28-2.56-2.56-3.84-3.84-29.44-29.44-58.88-58.88-88.32-89.6-7.68-7.68-15.36-14.080-25.6-16.64-19.2-5.12-37.12-2.56-52.48 10.24-3.84 2.56-6.4 6.4-10.24 8.96-16.64 16.64-33.28 33.28-49.92 49.92-20.48 21.76-55.040 24.32-79.36 1.28-17.92-17.92-33.28-37.12-47.36-57.6-21.76-30.72-42.24-62.72-66.56-90.88-39.68-47.36-85.76-85.76-142.080-111.36-17.92-7.68-35.84-12.8-55.040-12.8-44.8-2.56-76.8 34.56-76.8 75.52 0 26.88 8.96 49.92 20.48 72.96 16.64 33.28 38.4 61.44 62.72 88.32 25.6 29.44 56.32 52.48 88.32 74.24 26.88 19.2 55.040 38.4 80.64 60.16 6.4 5.12 12.8 11.52 19.2 17.92 24.32 23.040 23.040 60.16 1.28 80.64-17.92 16.64-34.56 34.56-51.2 51.2-3.84 3.84-6.4 7.68-10.24 11.52-15.36 20.48-15.36 48.64 1.28 67.84 1.28 2.56 2.56 3.84 5.12 5.12 30.72 30.72 61.44 61.44 92.16 93.44 0 1.28 1.28 1.28 1.28 2.56zM353.28 761.417c6.4 6.4 14.080 14.080 20.48 20.48 17.92 17.92 35.84 35.84 53.76 53.76 15.36 16.64 33.28 24.32 53.76 25.6 60.16 3.84 113.92-12.8 161.28-48.64 24.32-17.92 47.36-37.12 70.4-55.040 52.48-40.96 110.080-74.24 175.36-92.16 20.48-6.4 40.96-8.96 62.72-8.96 23.040-1.28 46.080 1.28 67.84 5.12 2.56 0 5.12 0 5.12 0-94.72-96-190.72-192-285.44-286.72-126.72 126.72-256 256-385.28 386.56z" />
<glyph unicode="&#xe941;" glyph-name="website-configuration" horiz-adv-x="1170" d="M1145.417 937.691c-20.48 13.166-42.423 13.166-64.366 13.166-324.754 0-649.509 0-974.263 0-8.777 0-19.017 0-29.257 0-43.886-5.851-73.143-36.571-77.531-80.457 0-11.703 0-21.943 0-33.646 0-266.24 0-531.017 0-797.257 0-13.166 0-24.869 1.463-38.034 1.463-26.331 14.629-45.349 38.034-59.977 19.017-11.703 38.034-14.629 59.977-14.629 165.303 0 330.606 0 495.909 0 57.051 0 114.103 0 172.617 0 108.251 0 215.040 0 323.291 0 62.903 0 80.457 17.554 80.457 77.531 0 289.646 0 579.291 0 867.474 0 8.777-1.463 17.554 0 24.869 0 21.943-10.24 32.183-26.331 40.96zM1107.383 27.794c0-11.703-4.389-19.017-17.554-17.554-10.24 0-19.017 0-29.257 0-156.526 0-313.051 0-469.577 0-152.137 0-304.274 0-456.411 0-8.777 0-16.091 0-24.869 0-27.794 1.463-27.794 1.463-29.257 26.331 0 5.851 0 11.703 0 16.091 0 212.114 0 424.229 0 636.343 0 8.777 0 16.091 0 24.869-1.463 16.091 5.851 23.406 21.943 23.406 8.777 0 16.091 0 24.869 0 311.589 0 623.177 0 934.766 0 1.463 0 2.926 0 4.389 0 42.423 0 42.423 0 42.423-40.96 0-215.040 0-430.080 0-645.12-1.463-5.851-1.463-14.629-1.463-23.406zM1062.034 509.074c-17.554 5.851-32.183 16.091-49.737 20.48-16.091 4.389-20.48 13.166-19.017 26.331 0 7.314 0 14.629 0 20.48 0 65.829-30.72 95.086-98.011 96.549-7.314 0-14.629 0-20.48 0-51.2-2.926-83.383-33.646-81.92-84.846 1.463-38.034-10.24-52.663-45.349-68.754-40.96-19.017-67.291-17.554-93.623 19.017-21.943 30.72-57.051 33.646-90.697 23.406-23.406-5.851-36.571-23.406-51.2-38.034-42.423-45.349-43.886-87.771 1.463-130.194 29.257-26.331 39.497-49.737 19.017-87.771-23.406-43.886-19.017-45.349-70.217-48.274-43.886-1.463-74.606-26.331-80.457-70.217-2.926-20.48-2.926-42.423 1.463-62.903 5.851-39.497 35.109-64.366 73.143-70.217 27.794-2.926 58.514 5.851 83.383-16.091 48.274 0 98.011 0 146.286 0 7.314 0 8.777 2.926 5.851 10.24-4.389 10.24-8.777 20.48-11.703 30.72-46.811 125.806 30.72 263.314 150.674 294.034 89.234 23.406 168.229 2.926 232.594-64.366 2.926-2.926 5.851-4.389 8.777-7.314 1.463 2.926 2.926 7.314 2.926 10.24 0 27.794 0 55.589 0 83.383 0 0 0 0 0 0 0 29.257 0 58.514 0 87.771 2.926 14.629 0 21.943-13.166 26.331z" />
<glyph unicode="&#xe942;" glyph-name="tree-view" horiz-adv-x="845" d="M844.8 345.417v326.4h-375.040v-174.080h-234.24v125.44h139.52v327.68h-375.040v-327.68h161.28v-569.6h308.48v-126.72h375.040v327.68h-375.040v-128h-234.24v298.24h234.24v-79.36z" />
<glyph unicode="&#xe943;" glyph-name="catalog" horiz-adv-x="947" d="M904.96 950.857c-65.28 0-657.92 0-769.28 0-23.040 0-38.4-15.36-38.4-37.12 0-24.32 0-48.64 0-72.96h85.76c38.4 0 69.12-30.72 69.12-69.12v-60.16c0-38.4-30.72-69.12-69.12-69.12h-87.040c0-34.56 0-69.12 0-103.68h85.76c38.4 0 69.12-30.72 69.12-69.12v-60.16c0-38.4-30.72-69.12-69.12-69.12h-85.76c0-34.56 0-69.12 0-103.68h85.76c38.4 0 69.12-30.72 69.12-69.12v-61.44c0-38.4-30.72-69.12-69.12-69.12h-85.76c0-21.76 0-44.8 0-66.56 0-28.16 14.080-43.52 43.52-43.52 254.72 0 509.44 0 765.44 0 28.16 0 42.24 14.080 42.24 43.52v938.24c0 26.88-15.36 42.24-42.24 42.24zM145.92 86.857c29.44 0 51.2 20.48 51.2 47.36s-21.76 48.64-52.48 48.64c-24.32 0-47.36 0-71.68 0s1.28 0-23.040 0c-28.16 0-49.92-21.76-49.92-48.64s23.040-47.36 51.2-47.36c48.64-1.28 47.36-1.28 94.72 0zM52.48 694.857c47.36 0 46.080 0 93.44 0 29.44 0 52.48 21.76 51.2 48.64 0 26.88-23.040 47.36-51.2 47.36-24.32 0-47.36 0-71.68 0s1.28 0-23.040 0c-29.44 0-52.48-20.48-52.48-48.64 1.28-25.6 24.32-47.36 53.76-47.36zM52.48 390.217c23.040 0-2.56 0 21.76 0s48.64 0 72.96 0c29.44 0 51.2 20.48 51.2 47.36s-21.76 48.64-52.48 48.64c-47.36 0-46.080 0-93.44 0-30.72 1.28-52.48-20.48-52.48-47.36 0-28.16 23.040-48.64 52.48-48.64z" />
<glyph unicode="&#xe944;" glyph-name="categories" d="M512 950.857c14.080 1.28 26.88-2.56 38.4-7.68 151.040-70.4 303.36-139.52 455.68-209.92 7.68-3.84 17.92-6.4 17.92-16.64 1.28-11.52-10.24-14.080-17.92-17.92-152.32-70.4-305.92-140.8-458.24-209.92-23.040-10.24-47.36-10.24-71.68 0-152.32 70.4-304.64 140.8-456.96 209.92-8.96 3.84-19.2 6.4-19.2 17.92s10.24 14.080 19.2 17.92c151.040 69.12 302.080 138.24 453.12 207.36 12.8 6.4 25.6 10.24 39.68 8.96zM133.12 499.017c12.8 0 25.6-2.56 38.4-8.96 101.12-46.080 202.24-92.16 303.36-138.24 24.32-11.52 49.92-11.52 74.24 0 101.12 46.080 203.52 93.44 304.64 139.52 24.32 11.52 49.92 11.52 74.24 0 25.6-11.52 52.48-24.32 78.080-35.84 3.84-1.28 7.68-3.84 11.52-6.4 8.96-6.4 7.68-15.36 0-21.76-3.84-2.56-8.96-5.12-12.8-6.4-152.32-69.12-304.64-139.52-456.96-208.64-24.32-11.52-48.64-10.24-72.96 0-151.040 69.12-303.36 139.52-455.68 208.64-7.68 3.84-19.2 6.4-19.2 17.92s11.52 14.080 19.2 17.92c25.6 11.52 51.2 23.040 76.8 35.84 11.52 5.12 24.32 7.68 37.12 6.4zM512-73.143c-12.8-1.28-25.6 2.56-37.12 7.68-152.32 70.4-304.64 139.52-456.96 209.92-7.68 2.56-17.92 6.4-17.92 16.64 0 11.52 10.24 14.080 17.92 17.92 25.6 11.52 52.48 24.32 78.080 35.84 24.32 10.24 48.64 10.24 72.96 0 99.84-46.080 200.96-90.88 300.8-136.96 28.16-12.8 56.32-12.8 84.48 0 99.84 46.080 199.68 92.16 299.52 136.96 23.040 10.24 47.36 11.52 71.68 1.28 28.16-11.52 55.040-25.6 83.2-38.4 2.56-1.28 3.84-1.28 6.4-2.56 14.080-8.96 14.080-17.92 0-26.88-3.84-2.56-6.4-3.84-10.24-5.12-149.76-69.12-299.52-136.96-449.28-206.080-15.36-6.4-29.44-11.52-43.52-10.24z" />
<glyph unicode="&#xe945;" glyph-name="products" horiz-adv-x="947" d="M473.6 477.074c-15.36-1.28-29.44 2.56-43.52 10.24-128 66.56-254.72 133.12-382.72 199.68-3.84 1.28-6.4 3.84-8.96 5.12-12.8 8.96-12.8 21.76 0 30.72 7.68 5.12 16.64 8.96 25.6 14.080 122.88 64 244.48 128 367.36 192 29.44 15.36 57.6 15.36 87.040 0 126.72-66.56 254.72-133.12 381.44-199.68 1.28 0 1.28-1.28 2.56-1.28 7.68-5.12 16.64-8.96 16.64-20.48s-8.96-15.36-16.64-20.48c-29.44-15.36-58.88-30.72-88.32-46.080-98.56-51.2-197.12-103.68-296.96-154.88-14.080-5.12-28.16-8.96-43.52-8.96zM523.52 146.834c0 65.28 0 129.28 0 194.56 0 32 14.080 56.32 43.52 70.4 112.64 58.88 225.28 116.48 337.92 175.36 2.56 1.28 6.4 2.56 8.96 3.84 19.2 7.68 33.28-2.56 33.28-21.76 0-128 0-254.72 0-382.72 0-26.88-15.36-48.64-38.4-62.72-85.76-49.92-171.52-98.56-256-148.48-29.44-16.64-58.88-33.28-88.32-51.2-3.84-2.56-8.96-5.12-14.080-6.4-12.8-2.56-21.76 2.56-24.32 14.080-1.28 5.12-1.28 10.24-1.28 15.36-1.28 66.56-1.28 133.12-1.28 199.68zM423.68 145.554c0-66.56 0-133.12 0-198.4 0-16.64-5.12-25.6-16.64-28.16-8.96-1.28-15.36 2.56-23.040 6.4-79.36 46.080-157.44 90.88-236.8 136.96-35.84 20.48-70.4 40.96-106.24 61.44-26.88 14.080-40.96 38.4-40.96 70.4 0 124.16 0 248.32 0 372.48 0 21.76 15.36 32 35.84 23.040 2.56-1.28 5.12-2.56 7.68-3.84 94.72-48.64 188.16-97.28 282.88-145.92 19.2-10.24 38.4-19.2 57.6-29.44 25.6-14.080 39.68-37.12 39.68-66.56 0-66.56 0-133.12 0-198.4z" />
<glyph unicode="&#xe946;" glyph-name="countries" d="M510.72 950.857c-282.88 0-510.72-227.84-510.72-510.72 0-284.16 227.84-513.28 510.72-513.28 284.16 0 513.28 227.84 513.28 510.72 0 285.44-227.84 513.28-513.28 513.28zM417.28 653.897c21.76 67.84 52.48 131.84 94.72 193.28 42.24-60.16 72.96-124.16 94.72-193.28 2.56-7.68 0-10.24-7.68-10.24-57.6 0-116.48 0-174.080 0-7.68 0-10.24 1.28-7.68 10.24zM377.6 824.137c-29.44-56.32-51.2-112.64-66.56-171.52-2.56-7.68-5.12-8.96-12.8-8.96-46.080 0-92.16 0-138.24 0 23.040 65.28 135.68 158.72 217.6 180.48zM126.72 336.457c-8.96 0-11.52 2.56-14.080 11.52-14.080 60.16-14.080 121.6 0 181.76 2.56 10.24 6.4 11.52 15.36 11.52 24.32 0 49.92 0 74.24 0s49.92 0 74.24 0c8.96 0 12.8-1.28 11.52-11.52-7.68-60.16-7.68-121.6 0-181.76 1.28-10.24-2.56-11.52-11.52-11.52-49.92 0-99.84 0-149.76 0zM157.44 234.057c48.64 0 94.72 0 140.8 0 6.4 0 10.24-1.28 11.52-8.96 15.36-58.88 37.12-116.48 67.84-172.8-96 34.56-167.68 94.72-220.16 181.76zM513.28 33.097c-5.12 1.28-6.4 5.12-7.68 7.68-37.12 56.32-66.56 116.48-87.040 180.48-2.56 6.4-6.4 12.8 6.4 12.8 60.16 0 121.6 0 184.32 0-21.76-72.96-53.76-139.52-96-200.96zM633.6 351.817c-1.28-14.080-6.4-15.36-17.92-15.36-34.56 0-70.4 0-104.96 0-35.84 0-71.68 0-107.52 0-8.96 0-11.52 2.56-12.8 11.52-7.68 60.16-7.68 120.32 0 181.76 1.28 8.96 3.84 11.52 12.8 11.52 72.96 0 144.64 0 217.6 0 8.96 0 11.52-2.56 12.8-11.52 7.68-58.88 7.68-119.040 0-177.92zM866.56 643.657c-48.64 0-94.72 0-140.8 0-6.4 0-10.24 1.28-11.52 8.96-15.36 58.88-37.12 116.48-67.84 172.8 94.72-34.56 166.4-94.72 220.16-181.76zM645.12 52.297c17.92 34.56 32 66.56 44.8 99.84 8.96 24.32 15.36 47.36 23.040 71.68 1.28 6.4 2.56 10.24 11.52 10.24 46.080 0 93.44 0 142.080 0-52.48-87.040-124.16-147.2-221.44-181.76zM897.28 336.457c-49.92 0-99.84 0-149.76 0-8.96 0-12.8 1.28-11.52 11.52 7.68 60.16 8.96 121.6 0 181.76-1.28 8.96 1.28 11.52 10.24 11.52 25.6 0 49.92 0 75.52 0 24.32 0 49.92 0 74.24 0 8.96 0 11.52-2.56 14.080-11.52 14.080-60.16 14.080-121.6 0-181.76-1.28-8.96-3.84-11.52-12.8-11.52z" />
<glyph unicode="&#xe947;" glyph-name="display" d="M513.28 874.057c149.76 0 299.52 0 449.28 0 10.24 0 20.48 0 30.72-5.12 21.76-11.52 30.72-29.44 32-53.76 0-1.28 0-3.84 0-5.12 0-165.12 0-328.96 0-494.080 0-8.96 0-17.92-3.84-26.88-7.68-20.48-23.040-33.28-44.8-37.12-6.4-1.28-14.080-1.28-20.48-1.28-296.96 0-592.64 0-889.6 0-7.68 0-15.36 0-21.76 1.28-25.6 6.4-39.68 28.16-42.24 46.080 0 6.4-1.28 12.8-1.28 17.92-1.28 166.4-1.28 328.96-1.28 492.8 0 12.8 1.28 25.6 7.68 37.12 10.24 17.92 25.6 26.88 44.8 28.16 3.84 0 8.96 0 12.8 0 149.76 0 298.24 0 448 0zM512 3.657c-66.56 0-131.84 0-198.4 0-11.52 0-20.48 3.84-26.88 12.8-11.52 14.080-5.12 43.52 21.76 46.080 7.68 1.28 15.36 0 23.040 0 3.84 0 6.4 1.28 6.4 5.12 2.56 16.64 5.12 33.28 7.68 48.64 5.12 32 10.24 30.72 15.36 62.72 0 3.84 2.56 5.12 5.12 5.12s3.84 0 6.4 0c92.16 0 183.040 0 275.2 0 2.56 0 3.84 0 6.4 0 3.84 0 5.12-1.28 6.4-5.12 3.84-23.040 7.68-12.8 10.24-35.84 3.84-24.32 7.68-49.92 11.52-74.24 1.28-5.12 2.56-6.4 7.68-6.4 7.68 0 15.36 0 23.040 0 11.52 0 20.48-6.4 25.6-16.64 3.84-10.24 3.84-20.48-3.84-29.44-5.12-6.4-11.52-10.24-20.48-11.52-2.56 0-6.4 0-10.24 0-62.72-1.28-126.72-1.28-192-1.28z" />
<glyph unicode="&#xe948;" glyph-name="brand" d="M1022.72 820.297c-1.28 42.24-16.64 78.080-51.2 103.68-15.36 11.52-32 20.48-51.2 23.040l-7.68 3.84h-158.72l-11.52-2.56c0 0-30.72-10.24-44.8-20.48-23.040-15.36-49.92-61.44-49.92-61.44l-3.84-11.52c0 0-2.56-172.8-3.84-259.84 0-21.76 26.88-34.56 43.52-26.88s20.48 19.2 20.48 33.28c1.28 24.32 0 49.92 0 74.24 0 6.4 1.28 10.24 8.96 6.4 23.040-12.8 40.96-29.44 47.36-55.040 0 0 0 0 0 0l3.84-11.52c10.24-52.48-21.76-99.84-75.52-112.64-11.52 0-23.040 0-34.56 0-38.4 8.96-64 32-75.52 69.12-2.56 7.68-2.56 16.64-2.56 25.6 0 69.12 0 138.24 0 208.64 0 15.36 0 16.64-16.64 16.64s-48.64 0-48.64 0l-35.84-3.84-11.52-3.84c-34.56-7.68-62.72-25.6-88.32-49.92-64-64-128-128-193.28-192-28.16-28.16-84.48-84.48-84.48-84.48v-2.56l-56.32-56.32c-5.12-3.84-10.24-15.36-10.24-15.36s-24.32-48.64-29.44-76.8c-5.12-37.12 1.28-71.68 15.36-106.24 10.24-23.040 25.6-42.24 43.52-61.44 10.24-10.24 20.48-21.76 30.72-32l11.52-7.68c0 0 66.56-65.28 99.84-99.84l14.080-14.080c0 0 26.88-25.6 40.96-38.4 25.6-24.32 75.52-42.24 89.6-44.8 32-6.4 69.12 0 69.12 0 38.4 7.68 72.96 23.040 99.84 51.2 0 0 79.36 78.080 96 94.72 39.68 39.68 140.8 140.8 140.8 140.8s40.96 38.4 60.16 58.88c16.64 17.92 35.84 33.28 48.64 53.76 11.52 19.2 24.32 37.12 26.88 60.16l3.84 11.52c0 0 1.28 271.36 3.84 407.040 0 8.96-2.56 12.8-12.8 12.8-55.040 0-110.080 0-165.12 0-14.080 0-17.92 5.12-12.8 16.64 11.52 25.6 28.16 44.8 61.44 44.8 43.52 0 85.76 0 129.28 0 37.12 0 64-29.44 64-64 0-30.72 0-62.72 0-93.44 0-12.8 6.4-23.040 17.92-29.44 12.8-6.4 25.6-5.12 35.84 3.84 8.96 7.68 11.52 17.92 11.52 28.16-1.28 29.44-1.28 58.88-2.56 89.6z" />
<glyph unicode="&#xe949;" glyph-name="price-management" horiz-adv-x="768" d="M765.44 771.657c-5.12 39.68-43.52 71.68-85.76 71.68-23.040 0-46.080 0-69.12 0-2.56 0-6.4 1.28-10.24-1.28 0-19.2 0-38.4 0-57.6 24.32 0 48.64-1.28 71.68 0 24.32 1.28 34.56-11.52 34.56-33.28 0-249.6 0-499.2 0-748.8 0-2.56 0-5.12 0-8.96 0-11.52-7.68-21.76-19.2-24.32-3.84-1.28-7.68-1.28-11.52-1.28-194.56 0-389.12 0-583.68 0-19.2 0-33.28 8.96-33.28 33.28 0 225.28 0 450.56 0 675.84 0 25.6 0 52.48 0 78.080 0 3.84 0 7.68 1.28 11.52 3.84 10.24 11.52 16.64 24.32 16.64 24.32 0 47.36 0 71.68 0 2.56 0 6.4-1.28 7.68 1.28 0 19.2 0 38.4 0 57.6-1.28 0-2.56 0-3.84 0-26.88 0-53.76 0-80.64 0-1.28 0-3.84 0-5.12 0-44.8-6.4-76.8-42.24-76.8-87.040 0-253.44 0-506.88 0-760.32 0-7.68 1.28-15.36 3.84-23.040 11.52-38.4 44.8-62.72 85.76-62.72 197.12 0 392.96 0 590.080 0 7.68 0 16.64 1.28 24.32 3.84 38.4 10.24 64 44.8 64 84.48 0 253.44 0 505.6 0 759.040 1.28 3.84 0 8.96 0 15.36zM220.16 758.857c28.16 0 56.32 0 85.76 0 79.36 0 160 0 239.36 0 19.2 0 28.16 10.24 28.16 28.16s0 35.84 0 53.76c0 16.64-10.24 26.88-26.88 26.88-14.080 0-28.16 0-40.96 0-3.84 3.84-5.12 6.4-6.4 8.96-7.68 14.080-16.64 26.88-24.32 40.96-5.12 10.24-12.8 14.080-25.6 14.080-46.080 0-92.16 0-138.24 0-12.8 0-20.48-3.84-25.6-15.36-8.96-16.64-19.2-32-28.16-48.64-12.8 0-25.6 0-38.4 0-15.36 0-25.6-10.24-25.6-25.6 0-19.2 0-39.68 0-58.88 0-6.4 1.28-11.52 5.12-15.36 5.12-5.12 12.8-8.96 21.76-8.96zM367.36 299.337c1.28-10.24 7.68-15.36 16.64-15.36s15.36 6.4 16.64 16.64c0 5.12 0 11.52 0 16.64 3.84 1.28 7.68 2.56 11.52 2.56 40.96 7.68 79.36 37.12 85.76 84.48 5.12 38.4-10.24 71.68-47.36 84.48-19.2 6.4-38.4 12.8-56.32 17.92-14.080 5.12-28.16 8.96-40.96 15.36-26.88 14.080-28.16 39.68-14.080 60.16 14.080 19.2 43.52 28.16 66.56 15.36 14.080-7.68 21.76-19.2 26.88-33.28 2.56-7.68 5.12-15.36 8.96-23.040 6.4-12.8 17.92-17.92 29.44-16.64 15.36 2.56 23.040 10.24 26.88 25.6 2.56 10.24 1.28 19.2-1.28 28.16-7.68 28.16-28.16 47.36-53.76 60.16-12.8 6.4-26.88 10.24-42.24 11.52 0 6.4 0 12.8 0 17.92 1.28 8.96-8.96 17.92-16.64 16.64-8.96 0-15.36-6.4-16.64-16.64 0-5.12 0-11.52 0-16.64-3.84-2.56-7.68-2.56-10.24-3.84-25.6-5.12-47.36-16.64-65.28-35.84-19.2-21.76-26.88-47.36-21.76-76.8 3.84-29.44 23.040-48.64 51.2-57.6 16.64-5.12 32-10.24 48.64-15.36 15.36-5.12 30.72-10.24 46.080-17.92 28.16-14.080 28.16-40.96 15.36-60.16-14.080-20.48-46.080-30.72-70.4-14.080-14.080 8.96-20.48 21.76-25.6 37.12-2.56 6.4-3.84 12.8-7.68 19.2-6.4 10.24-15.36 16.64-28.16 15.36s-21.76-7.68-25.6-19.2c-2.56-6.4-3.84-12.8-2.56-19.2 1.28-14.080 6.4-28.16 14.080-39.68 15.36-23.040 38.4-37.12 65.28-44.8 6.4-1.28 12.8-1.28 19.2-5.12-2.56-2.56-3.84-7.68-2.56-14.080zM119.040 94.537c-3.84 0-7.68 0-11.52-1.28-11.52-3.84-17.92-15.36-16.64-26.88 2.56-14.080 12.8-21.76 24.32-21.76 12.8 0 24.32 0 37.12 0 156.16 0 313.6 0 469.76 0 10.24 0 20.48 0 30.72 0 12.8 1.28 21.76 10.24 23.040 23.040 1.28 11.52-6.4 23.040-17.92 26.88-3.84 1.28-7.68 1.28-11.52 1.28-87.040 0-175.36 0-262.4 0 0 0 0 0 0 0-89.6-1.28-176.64-1.28-264.96-1.28zM203.52 157.257c3.84-1.28 8.96-1.28 12.8-1.28 56.32 0 111.36 0 167.68 0s111.36 0 167.68 0c5.12 0 8.96 0 14.080 1.28 11.52 3.84 17.92 11.52 17.92 24.32 0 11.52-6.4 20.48-16.64 24.32-5.12 1.28-8.96 1.28-14.080 1.28-112.64 0-224 0-336.64 0-2.56 0-3.84 0-6.4 0-12.8-1.28-23.040-10.24-24.32-21.76-2.56-14.080 3.84-24.32 17.92-28.16z" />
<glyph unicode="&#xe94a;" glyph-name="product-info" horiz-adv-x="922" d="M920.32 401.737c0 80.64 0 230.4 0 313.6 0 24.32-7.68 38.4-30.72 48.64-134.4 60.16-267.52 120.32-400.64 180.48-19.2 8.96-37.12 8.96-56.32 0-134.4-61.44-267.52-121.6-401.92-181.76-21.76-8.96-32-24.32-30.72-48.64 0-161.28 0-391.68 0-552.96 0-24.32 8.96-38.4 32-47.36 134.4-60.16 267.52-119.040 400.64-180.48 20.48-8.96 37.12-8.96 55.040 0 131.84 60.16 264.96 119.040 399.36 179.2 24.32 10.24 34.56 26.88 34.56 52.48-2.56 78.080-1.28 157.44-1.28 236.8zM554.24 326.217c0-39.68 0-79.36 0-119.040 0-72.96-81.92-117.76-144.64-76.8-28.16 17.92-42.24 43.52-42.24 76.8-1.28 79.36-1.28 160 0 239.36 0 51.2 40.96 90.88 92.16 92.16 52.48 1.28 92.16-37.12 94.72-89.6 1.28-20.48 0-40.96 0-60.16 0-21.76 0-42.24 0-62.72 0 0 0 0 0 0zM462.080 612.937c-52.48 0-93.44 40.96-94.72 93.44 0 51.2 42.24 94.72 93.44 94.72 46.080 0 92.16-33.28 94.72-93.44 1.28-53.76-46.080-97.28-93.44-94.72z" />
<glyph unicode="&#xe94b;" glyph-name="smtp" d="M89.6 573.257l-87.040-339.2c-1.28-6.4-2.56-12.8-2.56-20.48l240.64 247.040-151.040 112.64zM936.96 788.297c-1.28 0-1.28 0-2.56 1.28l-628.48 157.44c-62.72 16.64-128-21.76-143.36-85.76l-21.76-83.2 396.8-293.12 399.36 303.36zM477.44 275.017l-145.92 125.44-273.92-298.24c8.96-5.12 20.48-10.24 30.72-12.8l628.48-158.72c64-16.64 128 21.76 144.64 85.76l28.16 110.080-256 263.68-156.16-115.2zM798.72 515.657l147.2-166.4 74.24 294.4c2.56 11.52 3.84 24.32 3.84 35.84l-225.28-163.84z" />
</font>
</defs>
</svg>
